STARTFONT 2.1
FONT -ShijimiSerif-Regular-R-Regular--10-10-75-75-c-80-iso10646-1
SIZE 10 75 75
FONTBOUNDINGBOX 9 12 -1 -2
STARTPROPERTIES 10
FAMILY_NAME "ShijimiSerif"
WEIGHT_NAME "Regular"
FONT_VERSION "2.0"
COPYRIGHT "Copyright (c) 2025, Muji Unoyama"
FOUNDRY "Image Labo"
FONT_ASCENT 8
FONT_DESCENT 2
POINT_SIZE 10
X_HEIGHT 5
CAP_HEIGHT 7
ENDPROPERTIES
CHARS 571
STARTCHAR U+000A
ENCODING 10
SWIDTH 0 0
DWIDTH 0 0
BBX 0 0 0 0
BITMAP
ENDCHAR
STARTCHAR U+0020
ENCODING 32
SWIDTH 333 0
DWIDTH 3 0
BBX 0 0 0 0
BITMAP
ENDCHAR
STARTCHAR U+0021
ENCODING 33
SWIDTH 222 0
DWIDTH 2 0
BBX 1 7 0 0
BITMAP
80
80
80
80
80
00
80
ENDCHAR
STARTCHAR U+0022
ENCODING 34
SWIDTH 444 0
DWIDTH 4 0
BBX 3 2 0 5
BITMAP
A0
A0
ENDCHAR
STARTCHAR U+0023
ENCODING 35
SWIDTH 666 0
DWIDTH 6 0
BBX 5 7 0 0
BITMAP
50
F8
50
50
F8
50
50
ENDCHAR
STARTCHAR U+0024
ENCODING 36
SWIDTH 666 0
DWIDTH 6 0
BBX 5 7 0 0
BITMAP
20
78
A0
70
28
F0
20
ENDCHAR
STARTCHAR U+0025
ENCODING 37
SWIDTH 666 0
DWIDTH 6 0
BBX 5 7 0 0
BITMAP
40
A8
50
20
50
A8
10
ENDCHAR
STARTCHAR U+0026
ENCODING 38
SWIDTH 666 0
DWIDTH 6 0
BBX 5 7 0 0
BITMAP
40
A0
A0
40
A8
90
68
ENDCHAR
STARTCHAR U+0027
ENCODING 39
SWIDTH 222 0
DWIDTH 2 0
BBX 1 2 0 5
BITMAP
80
80
ENDCHAR
STARTCHAR U+0028
ENCODING 40
SWIDTH 333 0
DWIDTH 3 0
BBX 2 7 0 0
BITMAP
40
80
80
80
80
80
40
ENDCHAR
STARTCHAR U+0029
ENCODING 41
SWIDTH 333 0
DWIDTH 3 0
BBX 2 7 0 0
BITMAP
80
40
40
40
40
40
80
ENDCHAR
STARTCHAR U+002A
ENCODING 42
SWIDTH 666 0
DWIDTH 6 0
BBX 5 7 0 0
BITMAP
20
A8
70
20
70
A8
20
ENDCHAR
STARTCHAR U+002B
ENCODING 43
SWIDTH 666 0
DWIDTH 6 0
BBX 5 5 0 1
BITMAP
20
20
F8
20
20
ENDCHAR
STARTCHAR U+002C
ENCODING 44
SWIDTH 333 0
DWIDTH 3 0
BBX 2 2 0 -1
BITMAP
40
80
ENDCHAR
STARTCHAR U+002D
ENCODING 45
SWIDTH 444 0
DWIDTH 4 0
BBX 3 1 0 3
BITMAP
E0
ENDCHAR
STARTCHAR U+002E
ENCODING 46
SWIDTH 222 0
DWIDTH 2 0
BBX 1 1 0 0
BITMAP
80
ENDCHAR
STARTCHAR U+002F
ENCODING 47
SWIDTH 444 0
DWIDTH 4 0
BBX 3 7 0 0
BITMAP
20
20
40
40
40
80
80
ENDCHAR
STARTCHAR U+0030
ENCODING 48
SWIDTH 555 0
DWIDTH 5 0
BBX 4 7 0 0
BITMAP
60
90
90
90
90
90
60
ENDCHAR
STARTCHAR U+0031
ENCODING 49
SWIDTH 444 0
DWIDTH 4 0
BBX 3 7 0 0
BITMAP
40
C0
40
40
40
40
E0
ENDCHAR
STARTCHAR U+0032
ENCODING 50
SWIDTH 555 0
DWIDTH 5 0
BBX 4 7 0 0
BITMAP
E0
90
10
20
40
80
F0
ENDCHAR
STARTCHAR U+0033
ENCODING 51
SWIDTH 555 0
DWIDTH 5 0
BBX 4 7 0 0
BITMAP
E0
90
10
60
10
90
60
ENDCHAR
STARTCHAR U+0034
ENCODING 52
SWIDTH 555 0
DWIDTH 5 0
BBX 4 7 0 0
BITMAP
10
30
50
90
F0
10
30
ENDCHAR
STARTCHAR U+0035
ENCODING 53
SWIDTH 555 0
DWIDTH 5 0
BBX 4 7 0 0
BITMAP
F0
80
80
E0
10
90
E0
ENDCHAR
STARTCHAR U+0036
ENCODING 54
SWIDTH 555 0
DWIDTH 5 0
BBX 4 7 0 0
BITMAP
70
90
80
E0
90
90
60
ENDCHAR
STARTCHAR U+0037
ENCODING 55
SWIDTH 555 0
DWIDTH 5 0
BBX 4 7 0 0
BITMAP
F0
90
10
20
40
40
40
ENDCHAR
STARTCHAR U+0038
ENCODING 56
SWIDTH 555 0
DWIDTH 5 0
BBX 4 7 0 0
BITMAP
60
90
90
60
90
90
60
ENDCHAR
STARTCHAR U+0039
ENCODING 57
SWIDTH 555 0
DWIDTH 5 0
BBX 4 7 0 0
BITMAP
60
90
90
70
10
90
E0
ENDCHAR
STARTCHAR U+003A
ENCODING 58
SWIDTH 444 0
DWIDTH 4 0
BBX 1 4 1 1
BITMAP
80
00
00
80
ENDCHAR
STARTCHAR U+003B
ENCODING 59
SWIDTH 444 0
DWIDTH 4 0
BBX 2 5 0 0
BITMAP
40
00
00
40
80
ENDCHAR
STARTCHAR U+003C
ENCODING 60
SWIDTH 444 0
DWIDTH 4 0
BBX 3 5 0 1
BITMAP
20
40
80
40
20
ENDCHAR
STARTCHAR U+003D
ENCODING 61
SWIDTH 555 0
DWIDTH 5 0
BBX 4 3 0 2
BITMAP
F0
00
F0
ENDCHAR
STARTCHAR U+003E
ENCODING 62
SWIDTH 444 0
DWIDTH 4 0
BBX 3 5 0 1
BITMAP
80
40
20
40
80
ENDCHAR
STARTCHAR U+003F
ENCODING 63
SWIDTH 555 0
DWIDTH 5 0
BBX 4 7 0 0
BITMAP
E0
10
20
40
40
00
40
ENDCHAR
STARTCHAR U+0040
ENCODING 64
SWIDTH 777 0
DWIDTH 7 0
BBX 6 7 0 0
BITMAP
30
48
98
A8
90
44
38
ENDCHAR
STARTCHAR U+0041
ENCODING 65
SWIDTH 666 0
DWIDTH 6 0
BBX 5 7 0 0
BITMAP
20
20
50
50
70
88
98
ENDCHAR
STARTCHAR U+0042
ENCODING 66
SWIDTH 666 0
DWIDTH 6 0
BBX 5 7 0 0
BITMAP
F0
48
48
70
48
48
F0
ENDCHAR
STARTCHAR U+0043
ENCODING 67
SWIDTH 555 0
DWIDTH 5 0
BBX 4 7 0 0
BITMAP
70
90
80
80
80
90
60
ENDCHAR
STARTCHAR U+0044
ENCODING 68
SWIDTH 666 0
DWIDTH 6 0
BBX 5 7 0 0
BITMAP
F0
48
48
48
48
48
F0
ENDCHAR
STARTCHAR U+0045
ENCODING 69
SWIDTH 555 0
DWIDTH 5 0
BBX 4 7 0 0
BITMAP
F0
90
80
E0
80
80
F0
ENDCHAR
STARTCHAR U+0046
ENCODING 70
SWIDTH 555 0
DWIDTH 5 0
BBX 4 7 0 0
BITMAP
F0
90
80
E0
80
80
80
ENDCHAR
STARTCHAR U+0047
ENCODING 71
SWIDTH 555 0
DWIDTH 5 0
BBX 4 7 0 0
BITMAP
70
90
80
B0
90
90
70
ENDCHAR
STARTCHAR U+0048
ENCODING 72
SWIDTH 666 0
DWIDTH 6 0
BBX 5 7 0 0
BITMAP
C8
48
48
78
48
48
C8
ENDCHAR
STARTCHAR U+0049
ENCODING 73
SWIDTH 444 0
DWIDTH 4 0
BBX 3 7 0 0
BITMAP
E0
40
40
40
40
40
E0
ENDCHAR
STARTCHAR U+004A
ENCODING 74
SWIDTH 555 0
DWIDTH 5 0
BBX 4 7 0 0
BITMAP
70
20
20
20
20
20
C0
ENDCHAR
STARTCHAR U+004B
ENCODING 75
SWIDTH 666 0
DWIDTH 6 0
BBX 5 7 0 0
BITMAP
D8
90
A0
C0
A0
90
98
ENDCHAR
STARTCHAR U+004C
ENCODING 76
SWIDTH 555 0
DWIDTH 5 0
BBX 4 7 0 0
BITMAP
C0
80
80
80
80
80
F0
ENDCHAR
STARTCHAR U+004D
ENCODING 77
SWIDTH 777 0
DWIDTH 7 0
BBX 6 7 0 0
BITMAP
C4
6C
6C
54
54
44
C4
ENDCHAR
STARTCHAR U+004E
ENCODING 78
SWIDTH 666 0
DWIDTH 6 0
BBX 5 7 0 0
BITMAP
C8
68
68
58
58
48
C8
ENDCHAR
STARTCHAR U+004F
ENCODING 79
SWIDTH 555 0
DWIDTH 5 0
BBX 4 7 0 0
BITMAP
60
90
90
90
90
90
60
ENDCHAR
STARTCHAR U+0050
ENCODING 80
SWIDTH 666 0
DWIDTH 6 0
BBX 5 7 0 0
BITMAP
F0
48
48
70
40
40
C0
ENDCHAR
STARTCHAR U+0051
ENCODING 81
SWIDTH 555 0
DWIDTH 5 0
BBX 4 8 0 -1
BITMAP
60
90
90
90
90
90
60
10
ENDCHAR
STARTCHAR U+0052
ENCODING 82
SWIDTH 666 0
DWIDTH 6 0
BBX 5 7 0 0
BITMAP
F0
48
48
70
50
48
C8
ENDCHAR
STARTCHAR U+0053
ENCODING 83
SWIDTH 555 0
DWIDTH 5 0
BBX 4 7 0 0
BITMAP
70
90
80
60
10
90
E0
ENDCHAR
STARTCHAR U+0054
ENCODING 84
SWIDTH 666 0
DWIDTH 6 0
BBX 5 7 0 0
BITMAP
F8
A8
20
20
20
20
70
ENDCHAR
STARTCHAR U+0055
ENCODING 85
SWIDTH 555 0
DWIDTH 5 0
BBX 4 7 0 0
BITMAP
90
90
90
90
90
90
60
ENDCHAR
STARTCHAR U+0056
ENCODING 86
SWIDTH 666 0
DWIDTH 6 0
BBX 5 7 0 0
BITMAP
88
88
50
50
50
20
20
ENDCHAR
STARTCHAR U+0057
ENCODING 87
SWIDTH 666 0
DWIDTH 6 0
BBX 5 7 0 0
BITMAP
88
A8
A8
A8
50
50
50
ENDCHAR
STARTCHAR U+0058
ENCODING 88
SWIDTH 666 0
DWIDTH 6 0
BBX 5 7 0 0
BITMAP
D8
50
50
20
50
50
D8
ENDCHAR
STARTCHAR U+0059
ENCODING 89
SWIDTH 666 0
DWIDTH 6 0
BBX 5 7 0 0
BITMAP
D8
50
50
20
20
20
20
ENDCHAR
STARTCHAR U+005A
ENCODING 90
SWIDTH 555 0
DWIDTH 5 0
BBX 4 7 0 0
BITMAP
F0
90
20
60
40
90
F0
ENDCHAR
STARTCHAR U+005B
ENCODING 91
SWIDTH 333 0
DWIDTH 3 0
BBX 2 7 0 0
BITMAP
C0
80
80
80
80
80
C0
ENDCHAR
STARTCHAR U+005C
ENCODING 92
SWIDTH 444 0
DWIDTH 4 0
BBX 3 7 0 0
BITMAP
80
80
40
40
40
20
20
ENDCHAR
STARTCHAR U+005D
ENCODING 93
SWIDTH 333 0
DWIDTH 3 0
BBX 2 7 0 0
BITMAP
C0
40
40
40
40
40
C0
ENDCHAR
STARTCHAR U+005E
ENCODING 94
SWIDTH 444 0
DWIDTH 4 0
BBX 3 2 0 5
BITMAP
40
A0
ENDCHAR
STARTCHAR U+005F
ENCODING 95
SWIDTH 555 0
DWIDTH 5 0
BBX 4 1 0 0
BITMAP
F0
ENDCHAR
STARTCHAR U+0060
ENCODING 96
SWIDTH 333 0
DWIDTH 3 0
BBX 2 2 0 5
BITMAP
80
40
ENDCHAR
STARTCHAR U+0061
ENCODING 97
SWIDTH 555 0
DWIDTH 5 0
BBX 4 5 0 0
BITMAP
60
10
70
90
70
ENDCHAR
STARTCHAR U+0062
ENCODING 98
SWIDTH 555 0
DWIDTH 5 0
BBX 4 7 0 0
BITMAP
C0
80
A0
D0
90
90
E0
ENDCHAR
STARTCHAR U+0063
ENCODING 99
SWIDTH 555 0
DWIDTH 5 0
BBX 4 5 0 0
BITMAP
70
90
80
90
60
ENDCHAR
STARTCHAR U+0064
ENCODING 100
SWIDTH 555 0
DWIDTH 5 0
BBX 4 7 0 0
BITMAP
30
10
50
B0
90
90
70
ENDCHAR
STARTCHAR U+0065
ENCODING 101
SWIDTH 555 0
DWIDTH 5 0
BBX 4 5 0 0
BITMAP
60
90
F0
80
60
ENDCHAR
STARTCHAR U+0066
ENCODING 102
SWIDTH 555 0
DWIDTH 5 0
BBX 4 7 0 0
BITMAP
30
40
40
F0
40
40
E0
ENDCHAR
STARTCHAR U+0067
ENCODING 103
SWIDTH 555 0
DWIDTH 5 0
BBX 4 7 0 -2
BITMAP
50
B0
90
90
70
10
E0
ENDCHAR
STARTCHAR U+0068
ENCODING 104
SWIDTH 555 0
DWIDTH 5 0
BBX 4 7 0 0
BITMAP
C0
80
A0
D0
90
90
90
ENDCHAR
STARTCHAR U+0069
ENCODING 105
SWIDTH 444 0
DWIDTH 4 0
BBX 3 7 0 0
BITMAP
40
00
C0
40
40
40
E0
ENDCHAR
STARTCHAR U+006A
ENCODING 106
SWIDTH 333 0
DWIDTH 3 0
BBX 3 9 -1 -2
BITMAP
20
00
60
20
20
20
20
20
C0
ENDCHAR
STARTCHAR U+006B
ENCODING 107
SWIDTH 555 0
DWIDTH 5 0
BBX 4 7 0 0
BITMAP
C0
80
90
A0
C0
A0
B0
ENDCHAR
STARTCHAR U+006C
ENCODING 108
SWIDTH 444 0
DWIDTH 4 0
BBX 3 7 0 0
BITMAP
C0
40
40
40
40
40
E0
ENDCHAR
STARTCHAR U+006D
ENCODING 109
SWIDTH 666 0
DWIDTH 6 0
BBX 5 5 0 0
BITMAP
D0
A8
A8
A8
88
ENDCHAR
STARTCHAR U+006E
ENCODING 110
SWIDTH 555 0
DWIDTH 5 0
BBX 4 5 0 0
BITMAP
A0
D0
90
90
90
ENDCHAR
STARTCHAR U+006F
ENCODING 111
SWIDTH 555 0
DWIDTH 5 0
BBX 4 5 0 0
BITMAP
60
90
90
90
60
ENDCHAR
STARTCHAR U+0070
ENCODING 112
SWIDTH 555 0
DWIDTH 5 0
BBX 4 7 0 -2
BITMAP
A0
D0
90
90
E0
80
C0
ENDCHAR
STARTCHAR U+0071
ENCODING 113
SWIDTH 555 0
DWIDTH 5 0
BBX 4 7 0 -2
BITMAP
50
B0
90
90
70
10
30
ENDCHAR
STARTCHAR U+0072
ENCODING 114
SWIDTH 555 0
DWIDTH 5 0
BBX 4 5 0 0
BITMAP
B0
D0
80
80
C0
ENDCHAR
STARTCHAR U+0073
ENCODING 115
SWIDTH 555 0
DWIDTH 5 0
BBX 4 5 0 0
BITMAP
70
80
60
10
E0
ENDCHAR
STARTCHAR U+0074
ENCODING 116
SWIDTH 555 0
DWIDTH 5 0
BBX 4 6 0 0
BITMAP
40
F0
40
40
40
30
ENDCHAR
STARTCHAR U+0075
ENCODING 117
SWIDTH 555 0
DWIDTH 5 0
BBX 4 5 0 0
BITMAP
90
90
90
B0
50
ENDCHAR
STARTCHAR U+0076
ENCODING 118
SWIDTH 555 0
DWIDTH 5 0
BBX 4 5 0 0
BITMAP
90
90
90
A0
40
ENDCHAR
STARTCHAR U+0077
ENCODING 119
SWIDTH 666 0
DWIDTH 6 0
BBX 5 5 0 0
BITMAP
88
A8
A8
50
50
ENDCHAR
STARTCHAR U+0078
ENCODING 120
SWIDTH 666 0
DWIDTH 6 0
BBX 5 5 0 0
BITMAP
D8
50
20
50
D8
ENDCHAR
STARTCHAR U+0079
ENCODING 121
SWIDTH 666 0
DWIDTH 6 0
BBX 5 7 0 -2
BITMAP
C8
48
48
58
28
08
70
ENDCHAR
STARTCHAR U+007A
ENCODING 122
SWIDTH 666 0
DWIDTH 6 0
BBX 5 5 0 0
BITMAP
F8
90
20
48
F8
ENDCHAR
STARTCHAR U+007B
ENCODING 123
SWIDTH 444 0
DWIDTH 4 0
BBX 3 7 0 0
BITMAP
20
40
40
80
40
40
20
ENDCHAR
STARTCHAR U+007C
ENCODING 124
SWIDTH 222 0
DWIDTH 2 0
BBX 1 7 0 0
BITMAP
80
80
80
80
80
80
80
ENDCHAR
STARTCHAR U+007D
ENCODING 125
SWIDTH 444 0
DWIDTH 4 0
BBX 3 7 0 0
BITMAP
80
40
40
20
40
40
80
ENDCHAR
STARTCHAR U+007E
ENCODING 126
SWIDTH 777 0
DWIDTH 7 0
BBX 6 2 0 3
BITMAP
64
98
ENDCHAR
STARTCHAR U+00A0
ENCODING 160
SWIDTH 333 0
DWIDTH 3 0
BBX 0 0 0 0
BITMAP
ENDCHAR
STARTCHAR U+00A1
ENCODING 161
SWIDTH 222 0
DWIDTH 2 0
BBX 1 7 0 -1
BITMAP
80
00
80
80
80
80
80
ENDCHAR
STARTCHAR U+00A2
ENCODING 162
SWIDTH 666 0
DWIDTH 6 0
BBX 5 7 0 0
BITMAP
20
70
A8
A0
A8
70
20
ENDCHAR
STARTCHAR U+00A3
ENCODING 163
SWIDTH 555 0
DWIDTH 5 0
BBX 4 7 0 0
BITMAP
30
40
40
F0
40
80
F0
ENDCHAR
STARTCHAR U+00A4
ENCODING 164
SWIDTH 777 0
DWIDTH 7 0
BBX 6 6 0 0
BITMAP
B4
48
84
84
48
B4
ENDCHAR
STARTCHAR U+00A5
ENCODING 165
SWIDTH 666 0
DWIDTH 6 0
BBX 5 7 0 0
BITMAP
88
50
F8
20
F8
20
20
ENDCHAR
STARTCHAR U+00A6
ENCODING 166
SWIDTH 222 0
DWIDTH 2 0
BBX 1 7 0 0
BITMAP
80
80
80
00
80
80
80
ENDCHAR
STARTCHAR U+00A7
ENCODING 167
SWIDTH 555 0
DWIDTH 5 0
BBX 4 7 0 0
BITMAP
70
80
60
90
60
10
E0
ENDCHAR
STARTCHAR U+00A8
ENCODING 168
SWIDTH 444 0
DWIDTH 4 0
BBX 3 1 0 6
BITMAP
A0
ENDCHAR
STARTCHAR U+00A9
ENCODING 169
SWIDTH 888 0
DWIDTH 8 0
BBX 7 7 0 0
BITMAP
38
44
BA
A2
BA
44
38
ENDCHAR
STARTCHAR U+00AB
ENCODING 171
SWIDTH 555 0
DWIDTH 5 0
BBX 4 3 0 2
BITMAP
50
A0
50
ENDCHAR
STARTCHAR U+00AC
ENCODING 172
SWIDTH 666 0
DWIDTH 6 0
BBX 5 4 0 0
BITMAP
F8
08
08
08
ENDCHAR
STARTCHAR U+00AD
ENCODING 173
SWIDTH 555 0
DWIDTH 5 0
BBX 4 1 0 3
BITMAP
F0
ENDCHAR
STARTCHAR U+00AE
ENCODING 174
SWIDTH 888 0
DWIDTH 8 0
BBX 7 7 0 0
BITMAP
38
74
AA
B2
AA
44
38
ENDCHAR
STARTCHAR U+00AF
ENCODING 175
SWIDTH 555 0
DWIDTH 5 0
BBX 4 1 0 6
BITMAP
F0
ENDCHAR
STARTCHAR U+00B0
ENCODING 176
SWIDTH 444 0
DWIDTH 4 0
BBX 3 3 0 4
BITMAP
40
A0
40
ENDCHAR
STARTCHAR U+00B1
ENCODING 177
SWIDTH 666 0
DWIDTH 6 0
BBX 5 7 0 0
BITMAP
20
20
F8
20
20
00
F8
ENDCHAR
STARTCHAR U+00B4
ENCODING 180
SWIDTH 333 0
DWIDTH 3 0
BBX 2 2 0 5
BITMAP
40
80
ENDCHAR
STARTCHAR U+00B6
ENCODING 182
SWIDTH 666 0
DWIDTH 6 0
BBX 5 7 0 0
BITMAP
78
E8
E8
68
28
28
28
ENDCHAR
STARTCHAR U+00B7
ENCODING 183
SWIDTH 222 0
DWIDTH 2 0
BBX 1 1 0 3
BITMAP
80
ENDCHAR
STARTCHAR U+00BB
ENCODING 187
SWIDTH 555 0
DWIDTH 5 0
BBX 4 3 0 2
BITMAP
A0
50
A0
ENDCHAR
STARTCHAR U+00BF
ENCODING 191
SWIDTH 555 0
DWIDTH 5 0
BBX 4 7 0 -1
BITMAP
20
00
20
20
40
80
70
ENDCHAR
STARTCHAR U+00C0
ENCODING 192
SWIDTH 666 0
DWIDTH 6 0
BBX 5 9 0 0
BITMAP
40
20
00
20
50
50
70
88
98
ENDCHAR
STARTCHAR U+00C1
ENCODING 193
SWIDTH 666 0
DWIDTH 6 0
BBX 5 9 0 0
BITMAP
20
40
00
20
50
50
70
88
88
ENDCHAR
STARTCHAR U+00C2
ENCODING 194
SWIDTH 666 0
DWIDTH 6 0
BBX 5 9 0 0
BITMAP
20
50
00
20
50
50
70
88
88
ENDCHAR
STARTCHAR U+00C3
ENCODING 195
SWIDTH 666 0
DWIDTH 6 0
BBX 5 9 0 0
BITMAP
50
A0
00
20
50
50
70
88
88
ENDCHAR
STARTCHAR U+00C4
ENCODING 196
SWIDTH 666 0
DWIDTH 6 0
BBX 5 8 0 0
BITMAP
50
00
20
50
50
70
88
88
ENDCHAR
STARTCHAR U+00C5
ENCODING 197
SWIDTH 666 0
DWIDTH 6 0
BBX 5 9 0 0
BITMAP
20
50
20
20
50
50
70
88
88
ENDCHAR
STARTCHAR U+00C6
ENCODING 198
SWIDTH 777 0
DWIDTH 7 0
BBX 6 7 0 0
BITMAP
3C
34
50
5C
70
90
9C
ENDCHAR
STARTCHAR U+00C7
ENCODING 199
SWIDTH 555 0
DWIDTH 5 0
BBX 4 9 0 -2
BITMAP
70
90
80
80
80
90
60
20
40
ENDCHAR
STARTCHAR U+00C8
ENCODING 200
SWIDTH 555 0
DWIDTH 5 0
BBX 4 9 0 0
BITMAP
80
40
00
F0
80
E0
80
90
F0
ENDCHAR
STARTCHAR U+00C9
ENCODING 201
SWIDTH 555 0
DWIDTH 5 0
BBX 4 9 0 0
BITMAP
20
40
00
F0
80
F0
80
90
F0
ENDCHAR
STARTCHAR U+00CA
ENCODING 202
SWIDTH 555 0
DWIDTH 5 0
BBX 4 9 0 0
BITMAP
40
A0
00
F0
80
F0
80
90
F0
ENDCHAR
STARTCHAR U+00CB
ENCODING 203
SWIDTH 555 0
DWIDTH 5 0
BBX 4 8 0 0
BITMAP
A0
00
F0
80
F0
80
90
F0
ENDCHAR
STARTCHAR U+00CC
ENCODING 204
SWIDTH 444 0
DWIDTH 4 0
BBX 3 9 0 0
BITMAP
80
40
00
E0
40
40
40
40
E0
ENDCHAR
STARTCHAR U+00CD
ENCODING 205
SWIDTH 444 0
DWIDTH 4 0
BBX 3 9 0 0
BITMAP
20
40
00
E0
40
40
40
40
E0
ENDCHAR
STARTCHAR U+00CE
ENCODING 206
SWIDTH 444 0
DWIDTH 4 0
BBX 3 9 0 0
BITMAP
40
A0
00
E0
40
40
40
40
E0
ENDCHAR
STARTCHAR U+00CF
ENCODING 207
SWIDTH 444 0
DWIDTH 4 0
BBX 3 8 0 0
BITMAP
A0
00
E0
40
40
40
40
E0
ENDCHAR
STARTCHAR U+00D0
ENCODING 208
SWIDTH 666 0
DWIDTH 6 0
BBX 5 7 0 0
BITMAP
F0
48
48
E8
48
48
F0
ENDCHAR
STARTCHAR U+00D1
ENCODING 209
SWIDTH 666 0
DWIDTH 6 0
BBX 5 9 0 0
BITMAP
68
90
00
C8
68
68
58
58
C8
ENDCHAR
STARTCHAR U+00D2
ENCODING 210
SWIDTH 555 0
DWIDTH 5 0
BBX 4 9 0 0
BITMAP
40
20
00
60
90
90
90
90
60
ENDCHAR
STARTCHAR U+00D3
ENCODING 211
SWIDTH 555 0
DWIDTH 5 0
BBX 4 9 0 0
BITMAP
20
40
00
60
90
90
90
90
60
ENDCHAR
STARTCHAR U+00D4
ENCODING 212
SWIDTH 555 0
DWIDTH 5 0
BBX 4 9 0 0
BITMAP
20
50
00
60
90
90
90
90
60
ENDCHAR
STARTCHAR U+00D5
ENCODING 213
SWIDTH 555 0
DWIDTH 5 0
BBX 4 9 0 0
BITMAP
50
A0
00
60
90
90
90
90
60
ENDCHAR
STARTCHAR U+00D6
ENCODING 214
SWIDTH 555 0
DWIDTH 5 0
BBX 4 8 0 0
BITMAP
50
00
60
90
90
90
90
60
ENDCHAR
STARTCHAR U+00D7
ENCODING 215
SWIDTH 666 0
DWIDTH 6 0
BBX 5 5 0 1
BITMAP
88
50
20
50
88
ENDCHAR
STARTCHAR U+00D8
ENCODING 216
SWIDTH 777 0
DWIDTH 7 0
BBX 6 6 0 0
BITMAP
34
48
58
68
48
B0
ENDCHAR
STARTCHAR U+00D9
ENCODING 217
SWIDTH 555 0
DWIDTH 5 0
BBX 4 9 0 0
BITMAP
40
20
00
90
90
90
90
90
60
ENDCHAR
STARTCHAR U+00DA
ENCODING 218
SWIDTH 555 0
DWIDTH 5 0
BBX 4 9 0 0
BITMAP
20
40
00
90
90
90
90
90
60
ENDCHAR
STARTCHAR U+00DB
ENCODING 219
SWIDTH 555 0
DWIDTH 5 0
BBX 4 9 0 0
BITMAP
20
50
00
90
90
90
90
90
60
ENDCHAR
STARTCHAR U+00DC
ENCODING 220
SWIDTH 555 0
DWIDTH 5 0
BBX 4 8 0 0
BITMAP
50
00
90
90
90
90
90
60
ENDCHAR
STARTCHAR U+00DD
ENCODING 221
SWIDTH 666 0
DWIDTH 6 0
BBX 5 8 0 0
BITMAP
10
20
D8
50
50
20
20
20
ENDCHAR
STARTCHAR U+00DE
ENCODING 222
SWIDTH 555 0
DWIDTH 5 0
BBX 4 7 0 0
BITMAP
80
E0
90
90
E0
80
C0
ENDCHAR
STARTCHAR U+00DF
ENCODING 223
SWIDTH 555 0
DWIDTH 5 0
BBX 4 7 0 0
BITMAP
60
90
90
A0
90
90
A0
ENDCHAR
STARTCHAR U+00E0
ENCODING 224
SWIDTH 555 0
DWIDTH 5 0
BBX 4 8 0 0
BITMAP
40
20
00
60
10
70
90
70
ENDCHAR
STARTCHAR U+00E1
ENCODING 225
SWIDTH 555 0
DWIDTH 5 0
BBX 4 8 0 0
BITMAP
20
40
00
60
10
70
90
70
ENDCHAR
STARTCHAR U+00E2
ENCODING 226
SWIDTH 555 0
DWIDTH 5 0
BBX 4 8 0 0
BITMAP
20
50
00
60
10
70
90
70
ENDCHAR
STARTCHAR U+00E3
ENCODING 227
SWIDTH 555 0
DWIDTH 5 0
BBX 4 8 0 0
BITMAP
50
A0
00
60
10
70
90
70
ENDCHAR
STARTCHAR U+00E4
ENCODING 228
SWIDTH 555 0
DWIDTH 5 0
BBX 4 7 0 0
BITMAP
50
00
60
10
70
90
70
ENDCHAR
STARTCHAR U+00E5
ENCODING 229
SWIDTH 555 0
DWIDTH 5 0
BBX 4 8 0 0
BITMAP
20
50
00
60
10
70
90
70
ENDCHAR
STARTCHAR U+00E6
ENCODING 230
SWIDTH 666 0
DWIDTH 6 0
BBX 5 5 0 0
BITMAP
D0
28
78
A0
58
ENDCHAR
STARTCHAR U+00E7
ENCODING 231
SWIDTH 555 0
DWIDTH 5 0
BBX 4 7 0 -2
BITMAP
70
90
80
90
60
20
40
ENDCHAR
STARTCHAR U+00E8
ENCODING 232
SWIDTH 555 0
DWIDTH 5 0
BBX 4 8 0 0
BITMAP
40
20
00
60
90
F0
80
60
ENDCHAR
STARTCHAR U+00E9
ENCODING 233
SWIDTH 555 0
DWIDTH 5 0
BBX 4 8 0 0
BITMAP
20
40
00
60
90
F0
80
60
ENDCHAR
STARTCHAR U+00EA
ENCODING 234
SWIDTH 555 0
DWIDTH 5 0
BBX 4 8 0 0
BITMAP
20
50
00
60
90
F0
80
60
ENDCHAR
STARTCHAR U+00EB
ENCODING 235
SWIDTH 555 0
DWIDTH 5 0
BBX 4 7 0 0
BITMAP
50
00
60
90
F0
80
60
ENDCHAR
STARTCHAR U+00EC
ENCODING 236
SWIDTH 444 0
DWIDTH 4 0
BBX 3 8 0 0
BITMAP
80
40
00
E0
40
40
40
E0
ENDCHAR
STARTCHAR U+00ED
ENCODING 237
SWIDTH 444 0
DWIDTH 4 0
BBX 3 8 0 0
BITMAP
20
40
00
E0
40
40
40
E0
ENDCHAR
STARTCHAR U+00EE
ENCODING 238
SWIDTH 444 0
DWIDTH 4 0
BBX 3 8 0 0
BITMAP
40
A0
00
E0
40
40
40
E0
ENDCHAR
STARTCHAR U+00EF
ENCODING 239
SWIDTH 444 0
DWIDTH 4 0
BBX 3 7 0 0
BITMAP
A0
00
E0
40
40
40
E0
ENDCHAR
STARTCHAR U+00F0
ENCODING 240
SWIDTH 555 0
DWIDTH 5 0
BBX 4 7 0 0
BITMAP
A0
40
A0
10
70
90
60
ENDCHAR
STARTCHAR U+00F1
ENCODING 241
SWIDTH 555 0
DWIDTH 5 0
BBX 4 8 0 0
BITMAP
50
A0
00
A0
D0
90
90
90
ENDCHAR
STARTCHAR U+00F2
ENCODING 242
SWIDTH 555 0
DWIDTH 5 0
BBX 4 8 0 0
BITMAP
40
20
00
60
90
90
90
60
ENDCHAR
STARTCHAR U+00F3
ENCODING 243
SWIDTH 555 0
DWIDTH 5 0
BBX 4 8 0 0
BITMAP
20
40
00
60
90
90
90
60
ENDCHAR
STARTCHAR U+00F4
ENCODING 244
SWIDTH 555 0
DWIDTH 5 0
BBX 4 8 0 0
BITMAP
20
50
00
60
90
90
90
60
ENDCHAR
STARTCHAR U+00F5
ENCODING 245
SWIDTH 555 0
DWIDTH 5 0
BBX 4 8 0 0
BITMAP
50
A0
00
60
90
90
90
60
ENDCHAR
STARTCHAR U+00F6
ENCODING 246
SWIDTH 555 0
DWIDTH 5 0
BBX 4 7 0 0
BITMAP
50
00
60
90
90
90
60
ENDCHAR
STARTCHAR U+00F7
ENCODING 247
SWIDTH 666 0
DWIDTH 6 0
BBX 5 5 0 1
BITMAP
20
00
F8
00
20
ENDCHAR
STARTCHAR U+00F8
ENCODING 248
SWIDTH 777 0
DWIDTH 7 0
BBX 6 5 0 0
BITMAP
34
58
68
48
B0
ENDCHAR
STARTCHAR U+00F9
ENCODING 249
SWIDTH 555 0
DWIDTH 5 0
BBX 4 8 0 0
BITMAP
40
20
00
90
90
90
B0
50
ENDCHAR
STARTCHAR U+00FA
ENCODING 250
SWIDTH 555 0
DWIDTH 5 0
BBX 4 8 0 0
BITMAP
20
40
00
90
90
90
B0
50
ENDCHAR
STARTCHAR U+00FB
ENCODING 251
SWIDTH 555 0
DWIDTH 5 0
BBX 4 8 0 0
BITMAP
20
50
00
90
90
90
B0
50
ENDCHAR
STARTCHAR U+00FC
ENCODING 252
SWIDTH 555 0
DWIDTH 5 0
BBX 4 7 0 0
BITMAP
50
00
90
90
90
B0
50
ENDCHAR
STARTCHAR U+00FD
ENCODING 253
SWIDTH 666 0
DWIDTH 6 0
BBX 5 10 0 -2
BITMAP
10
20
00
C8
48
48
58
28
08
70
ENDCHAR
STARTCHAR U+00FE
ENCODING 254
SWIDTH 555 0
DWIDTH 5 0
BBX 4 9 0 -2
BITMAP
C0
80
A0
D0
90
90
E0
80
C0
ENDCHAR
STARTCHAR U+00FF
ENCODING 255
SWIDTH 666 0
DWIDTH 6 0
BBX 5 9 0 -2
BITMAP
28
00
C8
48
48
58
28
08
70
ENDCHAR
STARTCHAR U+0100
ENCODING 256
SWIDTH 666 0
DWIDTH 6 0
BBX 5 8 0 0
BITMAP
70
00
20
50
50
70
88
98
ENDCHAR
STARTCHAR U+0101
ENCODING 257
SWIDTH 555 0
DWIDTH 5 0
BBX 4 7 0 0
BITMAP
70
00
60
10
70
90
70
ENDCHAR
STARTCHAR U+0102
ENCODING 258
SWIDTH 666 0
DWIDTH 6 0
BBX 5 9 0 0
BITMAP
50
20
00
20
50
50
70
88
98
ENDCHAR
STARTCHAR U+0103
ENCODING 259
SWIDTH 555 0
DWIDTH 5 0
BBX 4 8 0 0
BITMAP
50
20
00
60
10
70
90
70
ENDCHAR
STARTCHAR U+0104
ENCODING 260
SWIDTH 666 0
DWIDTH 6 0
BBX 5 9 0 -2
BITMAP
20
20
50
50
70
88
88
10
08
ENDCHAR
STARTCHAR U+0105
ENCODING 261
SWIDTH 555 0
DWIDTH 5 0
BBX 4 7 0 -2
BITMAP
60
10
70
90
70
20
10
ENDCHAR
STARTCHAR U+0106
ENCODING 262
SWIDTH 555 0
DWIDTH 5 0
BBX 4 9 0 0
BITMAP
20
40
00
70
90
80
80
90
60
ENDCHAR
STARTCHAR U+0107
ENCODING 263
SWIDTH 555 0
DWIDTH 5 0
BBX 4 8 0 0
BITMAP
20
40
00
70
90
80
90
60
ENDCHAR
STARTCHAR U+0108
ENCODING 264
SWIDTH 555 0
DWIDTH 5 0
BBX 4 9 0 0
BITMAP
20
50
00
70
90
80
80
90
60
ENDCHAR
STARTCHAR U+0109
ENCODING 265
SWIDTH 555 0
DWIDTH 5 0
BBX 4 8 0 0
BITMAP
20
50
00
70
90
80
90
60
ENDCHAR
STARTCHAR U+010A
ENCODING 266
SWIDTH 555 0
DWIDTH 5 0
BBX 4 9 0 0
BITMAP
20
00
70
90
80
80
80
90
60
ENDCHAR
STARTCHAR U+010B
ENCODING 267
SWIDTH 555 0
DWIDTH 5 0
BBX 4 7 0 0
BITMAP
20
00
70
90
80
90
60
ENDCHAR
STARTCHAR U+010C
ENCODING 268
SWIDTH 555 0
DWIDTH 5 0
BBX 4 9 0 0
BITMAP
50
20
00
70
90
80
80
90
60
ENDCHAR
STARTCHAR U+010D
ENCODING 269
SWIDTH 555 0
DWIDTH 5 0
BBX 4 8 0 0
BITMAP
50
20
00
70
90
80
90
60
ENDCHAR
STARTCHAR U+010E
ENCODING 270
SWIDTH 666 0
DWIDTH 6 0
BBX 5 9 0 0
BITMAP
50
20
00
F0
48
48
48
48
F0
ENDCHAR
STARTCHAR U+010F
ENCODING 271
SWIDTH 777 0
DWIDTH 7 0
BBX 6 7 0 0
BITMAP
34
14
50
B0
90
90
70
ENDCHAR
STARTCHAR U+0110
ENCODING 272
SWIDTH 666 0
DWIDTH 6 0
BBX 5 7 0 0
BITMAP
F0
48
48
E8
48
48
F0
ENDCHAR
STARTCHAR U+0111
ENCODING 273
SWIDTH 666 0
DWIDTH 6 0
BBX 5 7 0 0
BITMAP
10
78
10
50
B0
90
70
ENDCHAR
STARTCHAR U+0112
ENCODING 274
SWIDTH 555 0
DWIDTH 5 0
BBX 4 8 0 0
BITMAP
E0
00
F0
80
E0
80
90
F0
ENDCHAR
STARTCHAR U+0113
ENCODING 275
SWIDTH 555 0
DWIDTH 5 0
BBX 4 7 0 0
BITMAP
F0
00
60
90
F0
80
60
ENDCHAR
STARTCHAR U+0114
ENCODING 276
SWIDTH 555 0
DWIDTH 5 0
BBX 4 9 0 0
BITMAP
90
60
00
F0
80
E0
80
90
F0
ENDCHAR
STARTCHAR U+0115
ENCODING 277
SWIDTH 555 0
DWIDTH 5 0
BBX 4 8 0 0
BITMAP
90
60
00
60
90
F0
80
60
ENDCHAR
STARTCHAR U+0116
ENCODING 278
SWIDTH 555 0
DWIDTH 5 0
BBX 4 8 0 0
BITMAP
40
00
F0
80
E0
80
90
F0
ENDCHAR
STARTCHAR U+0117
ENCODING 279
SWIDTH 555 0
DWIDTH 5 0
BBX 4 7 0 0
BITMAP
20
00
60
90
F0
80
60
ENDCHAR
STARTCHAR U+0118
ENCODING 280
SWIDTH 555 0
DWIDTH 5 0
BBX 4 9 0 -2
BITMAP
F0
80
80
E0
80
90
F0
40
20
ENDCHAR
STARTCHAR U+0119
ENCODING 281
SWIDTH 555 0
DWIDTH 5 0
BBX 4 7 0 -2
BITMAP
60
90
F0
80
60
40
20
ENDCHAR
STARTCHAR U+011A
ENCODING 282
SWIDTH 555 0
DWIDTH 5 0
BBX 4 9 0 0
BITMAP
A0
40
00
F0
80
E0
80
90
F0
ENDCHAR
STARTCHAR U+011B
ENCODING 283
SWIDTH 555 0
DWIDTH 5 0
BBX 4 8 0 0
BITMAP
50
20
00
60
90
F0
80
60
ENDCHAR
STARTCHAR U+011C
ENCODING 284
SWIDTH 555 0
DWIDTH 5 0
BBX 4 9 0 0
BITMAP
20
50
00
70
90
80
B0
90
70
ENDCHAR
STARTCHAR U+011D
ENCODING 285
SWIDTH 555 0
DWIDTH 5 0
BBX 4 10 0 -2
BITMAP
20
50
00
50
B0
90
90
70
10
E0
ENDCHAR
STARTCHAR U+011E
ENCODING 286
SWIDTH 555 0
DWIDTH 5 0
BBX 4 9 0 0
BITMAP
90
60
00
70
90
80
B0
90
70
ENDCHAR
STARTCHAR U+011F
ENCODING 287
SWIDTH 555 0
DWIDTH 5 0
BBX 4 10 0 -2
BITMAP
90
60
00
50
B0
90
90
70
10
E0
ENDCHAR
STARTCHAR U+0120
ENCODING 288
SWIDTH 555 0
DWIDTH 5 0
BBX 4 8 0 0
BITMAP
20
00
70
90
80
B0
90
70
ENDCHAR
STARTCHAR U+0121
ENCODING 289
SWIDTH 555 0
DWIDTH 5 0
BBX 4 9 0 -2
BITMAP
20
00
50
B0
90
90
70
10
E0
ENDCHAR
STARTCHAR U+0122
ENCODING 290
SWIDTH 555 0
DWIDTH 5 0
BBX 4 9 0 -2
BITMAP
70
90
80
B0
90
90
70
20
40
ENDCHAR
STARTCHAR U+0123
ENCODING 291
SWIDTH 555 0
DWIDTH 5 0
BBX 4 10 0 -2
BITMAP
20
40
00
50
B0
90
90
70
10
E0
ENDCHAR
STARTCHAR U+0124
ENCODING 292
SWIDTH 666 0
DWIDTH 6 0
BBX 5 9 0 0
BITMAP
10
28
00
C8
48
78
48
48
C8
ENDCHAR
STARTCHAR U+0125
ENCODING 293
SWIDTH 555 0
DWIDTH 5 0
BBX 5 9 -1 0
BITMAP
40
A0
00
60
40
50
68
48
48
ENDCHAR
STARTCHAR U+0126
ENCODING 294
SWIDTH 777 0
DWIDTH 7 0
BBX 6 7 0 0
BITMAP
48
FC
48
78
48
48
C8
ENDCHAR
STARTCHAR U+0127
ENCODING 295
SWIDTH 666 0
DWIDTH 6 0
BBX 5 7 0 0
BITMAP
40
F0
40
50
68
48
48
ENDCHAR
STARTCHAR U+0128
ENCODING 296
SWIDTH 444 0
DWIDTH 4 0
BBX 4 9 0 0
BITMAP
50
A0
00
E0
40
40
40
40
E0
ENDCHAR
STARTCHAR U+0129
ENCODING 297
SWIDTH 444 0
DWIDTH 4 0
BBX 4 8 0 0
BITMAP
50
A0
00
C0
40
40
40
E0
ENDCHAR
STARTCHAR U+012A
ENCODING 298
SWIDTH 444 0
DWIDTH 4 0
BBX 3 8 0 0
BITMAP
E0
00
E0
40
40
40
40
E0
ENDCHAR
STARTCHAR U+012B
ENCODING 299
SWIDTH 444 0
DWIDTH 4 0
BBX 3 7 0 0
BITMAP
E0
00
C0
40
40
40
E0
ENDCHAR
STARTCHAR U+012C
ENCODING 300
SWIDTH 444 0
DWIDTH 4 0
BBX 4 9 0 0
BITMAP
90
60
00
E0
40
40
40
40
E0
ENDCHAR
STARTCHAR U+012D
ENCODING 301
SWIDTH 444 0
DWIDTH 4 0
BBX 4 8 0 0
BITMAP
90
60
00
C0
40
40
40
E0
ENDCHAR
STARTCHAR U+012E
ENCODING 302
SWIDTH 444 0
DWIDTH 4 0
BBX 3 9 0 -2
BITMAP
E0
40
40
40
40
40
E0
40
20
ENDCHAR
STARTCHAR U+012F
ENCODING 303
SWIDTH 444 0
DWIDTH 4 0
BBX 3 9 0 -2
BITMAP
40
00
C0
40
40
40
E0
40
20
ENDCHAR
STARTCHAR U+0130
ENCODING 304
SWIDTH 444 0
DWIDTH 4 0
BBX 3 8 0 0
BITMAP
40
00
E0
40
40
40
40
E0
ENDCHAR
STARTCHAR U+0131
ENCODING 305
SWIDTH 444 0
DWIDTH 4 0
BBX 3 5 0 0
BITMAP
C0
40
40
40
E0
ENDCHAR
STARTCHAR U+0132
ENCODING 306
SWIDTH 888 0
DWIDTH 8 0
BBX 7 7 0 0
BITMAP
EE
44
44
44
44
44
E8
ENDCHAR
STARTCHAR U+0133
ENCODING 307
SWIDTH 666 0
DWIDTH 6 0
BBX 5 9 0 -2
BITMAP
48
00
D8
48
48
48
E8
08
10
ENDCHAR
STARTCHAR U+0134
ENCODING 308
SWIDTH 555 0
DWIDTH 5 0
BBX 4 9 0 0
BITMAP
20
50
00
70
20
20
20
20
C0
ENDCHAR
STARTCHAR U+0135
ENCODING 309
SWIDTH 333 0
DWIDTH 3 0
BBX 4 10 -1 -2
BITMAP
20
50
00
60
20
20
20
20
20
C0
ENDCHAR
STARTCHAR U+0136
ENCODING 310
SWIDTH 666 0
DWIDTH 6 0
BBX 5 9 0 -2
BITMAP
98
90
A0
C0
A0
90
98
40
80
ENDCHAR
STARTCHAR U+0137
ENCODING 311
SWIDTH 555 0
DWIDTH 5 0
BBX 4 9 0 -2
BITMAP
C0
80
90
A0
C0
A0
B0
40
80
ENDCHAR
STARTCHAR U+0138
ENCODING 312
SWIDTH 555 0
DWIDTH 5 0
BBX 4 5 0 0
BITMAP
90
A0
C0
A0
B0
ENDCHAR
STARTCHAR U+0139
ENCODING 313
SWIDTH 555 0
DWIDTH 5 0
BBX 4 9 0 0
BITMAP
40
80
00
C0
80
80
80
80
F0
ENDCHAR
STARTCHAR U+013A
ENCODING 314
SWIDTH 444 0
DWIDTH 4 0
BBX 3 9 0 0
BITMAP
40
80
00
C0
40
40
40
40
E0
ENDCHAR
STARTCHAR U+013B
ENCODING 315
SWIDTH 555 0
DWIDTH 5 0
BBX 4 9 0 -2
BITMAP
C0
80
80
80
80
80
F0
40
80
ENDCHAR
STARTCHAR U+013C
ENCODING 316
SWIDTH 444 0
DWIDTH 4 0
BBX 3 9 0 -2
BITMAP
C0
40
40
40
40
40
E0
40
80
ENDCHAR
STARTCHAR U+013D
ENCODING 317
SWIDTH 555 0
DWIDTH 5 0
BBX 4 9 0 0
BITMAP
A0
40
00
C0
80
80
80
80
F0
ENDCHAR
STARTCHAR U+013E
ENCODING 318
SWIDTH 444 0
DWIDTH 4 0
BBX 3 9 0 0
BITMAP
A0
40
00
C0
40
40
40
40
E0
ENDCHAR
STARTCHAR U+013F
ENCODING 319
SWIDTH 555 0
DWIDTH 5 0
BBX 4 7 0 0
BITMAP
C0
80
80
A0
80
80
F0
ENDCHAR
STARTCHAR U+0140
ENCODING 320
SWIDTH 555 0
DWIDTH 5 0
BBX 4 7 0 0
BITMAP
C0
40
50
40
40
40
E0
ENDCHAR
STARTCHAR U+0141
ENCODING 321
SWIDTH 666 0
DWIDTH 6 0
BBX 5 7 0 0
BITMAP
60
40
60
C0
40
40
78
ENDCHAR
STARTCHAR U+0142
ENCODING 322
SWIDTH 444 0
DWIDTH 4 0
BBX 3 7 0 0
BITMAP
C0
40
60
C0
40
40
E0
ENDCHAR
STARTCHAR U+0143
ENCODING 323
SWIDTH 666 0
DWIDTH 6 0
BBX 5 9 0 0
BITMAP
10
20
00
C8
68
68
58
58
C8
ENDCHAR
STARTCHAR U+0144
ENCODING 324
SWIDTH 555 0
DWIDTH 5 0
BBX 4 8 0 0
BITMAP
20
40
00
A0
D0
90
90
90
ENDCHAR
STARTCHAR U+0145
ENCODING 325
SWIDTH 666 0
DWIDTH 6 0
BBX 5 9 0 -2
BITMAP
C8
68
68
58
58
48
C8
20
40
ENDCHAR
STARTCHAR U+0146
ENCODING 326
SWIDTH 555 0
DWIDTH 5 0
BBX 4 7 0 -2
BITMAP
A0
D0
90
90
90
40
80
ENDCHAR
STARTCHAR U+0147
ENCODING 327
SWIDTH 666 0
DWIDTH 6 0
BBX 5 9 0 0
BITMAP
28
10
00
C8
68
68
58
58
C8
ENDCHAR
STARTCHAR U+0148
ENCODING 328
SWIDTH 555 0
DWIDTH 5 0
BBX 4 8 0 0
BITMAP
A0
40
00
A0
D0
90
90
90
ENDCHAR
STARTCHAR U+0149
ENCODING 329
SWIDTH 555 0
DWIDTH 5 0
BBX 4 8 0 0
BITMAP
40
80
00
A0
D0
90
90
90
ENDCHAR
STARTCHAR U+014A
ENCODING 330
SWIDTH 666 0
DWIDTH 6 0
BBX 5 9 0 -2
BITMAP
C8
68
68
58
58
48
C8
08
10
ENDCHAR
STARTCHAR U+014B
ENCODING 331
SWIDTH 555 0
DWIDTH 5 0
BBX 4 7 0 -2
BITMAP
A0
D0
90
90
90
10
20
ENDCHAR
STARTCHAR U+014C
ENCODING 332
SWIDTH 555 0
DWIDTH 5 0
BBX 4 8 0 0
BITMAP
F0
00
60
90
90
90
90
60
ENDCHAR
STARTCHAR U+014D
ENCODING 333
SWIDTH 555 0
DWIDTH 5 0
BBX 4 7 0 0
BITMAP
F0
00
60
90
90
90
60
ENDCHAR
STARTCHAR U+014E
ENCODING 334
SWIDTH 555 0
DWIDTH 5 0
BBX 4 9 0 0
BITMAP
90
60
00
60
90
90
90
90
60
ENDCHAR
STARTCHAR U+014F
ENCODING 335
SWIDTH 555 0
DWIDTH 5 0
BBX 4 8 0 0
BITMAP
90
60
00
60
90
90
90
60
ENDCHAR
STARTCHAR U+0150
ENCODING 336
SWIDTH 555 0
DWIDTH 5 0
BBX 4 9 0 0
BITMAP
50
A0
00
60
90
90
90
90
60
ENDCHAR
STARTCHAR U+0151
ENCODING 337
SWIDTH 555 0
DWIDTH 5 0
BBX 4 8 0 0
BITMAP
50
A0
00
60
90
90
90
60
ENDCHAR
STARTCHAR U+0152
ENCODING 338
SWIDTH 666 0
DWIDTH 6 0
BBX 5 7 0 0
BITMAP
78
A8
A0
B8
A0
A0
78
ENDCHAR
STARTCHAR U+0153
ENCODING 339
SWIDTH 666 0
DWIDTH 6 0
BBX 5 5 0 0
BITMAP
50
A8
B8
A0
58
ENDCHAR
STARTCHAR U+0154
ENCODING 340
SWIDTH 666 0
DWIDTH 6 0
BBX 5 9 0 0
BITMAP
10
20
00
F0
48
48
70
48
C8
ENDCHAR
STARTCHAR U+0155
ENCODING 341
SWIDTH 555 0
DWIDTH 5 0
BBX 4 8 0 0
BITMAP
40
80
00
B0
D0
80
80
C0
ENDCHAR
STARTCHAR U+0156
ENCODING 342
SWIDTH 666 0
DWIDTH 6 0
BBX 5 9 0 -2
BITMAP
F0
48
48
70
50
48
C8
20
40
ENDCHAR
STARTCHAR U+0157
ENCODING 343
SWIDTH 555 0
DWIDTH 5 0
BBX 4 7 0 -2
BITMAP
B0
D0
80
80
C0
40
80
ENDCHAR
STARTCHAR U+0158
ENCODING 344
SWIDTH 666 0
DWIDTH 6 0
BBX 5 9 0 0
BITMAP
50
20
00
F0
48
48
70
48
C8
ENDCHAR
STARTCHAR U+0159
ENCODING 345
SWIDTH 555 0
DWIDTH 5 0
BBX 4 8 0 0
BITMAP
A0
40
00
B0
D0
80
80
C0
ENDCHAR
STARTCHAR U+015A
ENCODING 346
SWIDTH 555 0
DWIDTH 5 0
BBX 4 9 0 0
BITMAP
20
40
00
70
80
E0
10
90
E0
ENDCHAR
STARTCHAR U+015B
ENCODING 347
SWIDTH 555 0
DWIDTH 5 0
BBX 4 8 0 0
BITMAP
20
40
00
70
80
60
10
E0
ENDCHAR
STARTCHAR U+015C
ENCODING 348
SWIDTH 555 0
DWIDTH 5 0
BBX 4 9 0 0
BITMAP
20
50
00
70
80
60
10
90
E0
ENDCHAR
STARTCHAR U+015D
ENCODING 349
SWIDTH 555 0
DWIDTH 5 0
BBX 4 8 0 0
BITMAP
20
50
00
70
80
60
10
E0
ENDCHAR
STARTCHAR U+015E
ENCODING 350
SWIDTH 555 0
DWIDTH 5 0
BBX 4 9 0 -2
BITMAP
70
90
80
60
10
90
E0
20
40
ENDCHAR
STARTCHAR U+015F
ENCODING 351
SWIDTH 555 0
DWIDTH 5 0
BBX 4 7 0 -2
BITMAP
70
80
60
10
E0
20
40
ENDCHAR
STARTCHAR U+0160
ENCODING 352
SWIDTH 555 0
DWIDTH 5 0
BBX 4 9 0 0
BITMAP
50
20
00
70
80
60
10
90
E0
ENDCHAR
STARTCHAR U+0161
ENCODING 353
SWIDTH 555 0
DWIDTH 5 0
BBX 4 8 0 0
BITMAP
50
20
00
70
80
60
10
E0
ENDCHAR
STARTCHAR U+0162
ENCODING 354
SWIDTH 666 0
DWIDTH 6 0
BBX 5 9 0 -2
BITMAP
F8
A8
20
20
20
20
70
10
20
ENDCHAR
STARTCHAR U+0163
ENCODING 355
SWIDTH 555 0
DWIDTH 5 0
BBX 4 7 0 -1
BITMAP
40
F0
40
40
40
30
40
ENDCHAR
STARTCHAR U+0164
ENCODING 356
SWIDTH 666 0
DWIDTH 6 0
BBX 5 9 0 0
BITMAP
50
20
00
F8
A8
20
20
20
70
ENDCHAR
STARTCHAR U+0165
ENCODING 357
SWIDTH 555 0
DWIDTH 5 0
BBX 4 9 0 0
BITMAP
A0
40
00
40
F0
40
40
40
30
ENDCHAR
STARTCHAR U+0166
ENCODING 358
SWIDTH 666 0
DWIDTH 6 0
BBX 5 7 0 0
BITMAP
F8
A8
20
70
20
20
70
ENDCHAR
STARTCHAR U+0167
ENCODING 359
SWIDTH 555 0
DWIDTH 5 0
BBX 4 6 0 0
BITMAP
40
F0
40
E0
40
30
ENDCHAR
STARTCHAR U+0168
ENCODING 360
SWIDTH 555 0
DWIDTH 5 0
BBX 4 9 0 0
BITMAP
50
A0
00
90
90
90
90
90
60
ENDCHAR
STARTCHAR U+0169
ENCODING 361
SWIDTH 555 0
DWIDTH 5 0
BBX 4 8 0 0
BITMAP
50
A0
00
90
90
90
B0
50
ENDCHAR
STARTCHAR U+016A
ENCODING 362
SWIDTH 555 0
DWIDTH 5 0
BBX 4 8 0 0
BITMAP
F0
00
90
90
90
90
90
60
ENDCHAR
STARTCHAR U+016B
ENCODING 363
SWIDTH 555 0
DWIDTH 5 0
BBX 4 7 0 0
BITMAP
F0
00
90
90
90
B0
50
ENDCHAR
STARTCHAR U+016C
ENCODING 364
SWIDTH 555 0
DWIDTH 5 0
BBX 4 9 0 0
BITMAP
90
60
00
90
90
90
90
90
60
ENDCHAR
STARTCHAR U+016D
ENCODING 365
SWIDTH 555 0
DWIDTH 5 0
BBX 4 8 0 0
BITMAP
90
60
00
90
90
90
B0
50
ENDCHAR
STARTCHAR U+016E
ENCODING 366
SWIDTH 555 0
DWIDTH 5 0
BBX 4 9 0 0
BITMAP
20
50
20
90
90
90
90
90
60
ENDCHAR
STARTCHAR U+016F
ENCODING 367
SWIDTH 555 0
DWIDTH 5 0
BBX 4 8 0 0
BITMAP
20
50
20
90
90
90
B0
50
ENDCHAR
STARTCHAR U+0170
ENCODING 368
SWIDTH 555 0
DWIDTH 5 0
BBX 4 9 0 0
BITMAP
50
A0
00
90
90
90
90
90
60
ENDCHAR
STARTCHAR U+0171
ENCODING 369
SWIDTH 555 0
DWIDTH 5 0
BBX 4 8 0 0
BITMAP
50
A0
00
90
90
90
B0
50
ENDCHAR
STARTCHAR U+0172
ENCODING 370
SWIDTH 555 0
DWIDTH 5 0
BBX 4 9 0 -2
BITMAP
90
90
90
90
90
90
60
40
20
ENDCHAR
STARTCHAR U+0173
ENCODING 371
SWIDTH 555 0
DWIDTH 5 0
BBX 4 7 0 -2
BITMAP
90
90
90
B0
50
20
10
ENDCHAR
STARTCHAR U+0174
ENCODING 372
SWIDTH 666 0
DWIDTH 6 0
BBX 5 9 0 0
BITMAP
20
50
00
88
A8
A8
A8
50
50
ENDCHAR
STARTCHAR U+0175
ENCODING 373
SWIDTH 666 0
DWIDTH 6 0
BBX 5 8 0 0
BITMAP
20
50
00
88
A8
A8
50
50
ENDCHAR
STARTCHAR U+0176
ENCODING 374
SWIDTH 666 0
DWIDTH 6 0
BBX 5 9 0 0
BITMAP
20
50
00
D8
50
50
20
20
20
ENDCHAR
STARTCHAR U+0177
ENCODING 375
SWIDTH 666 0
DWIDTH 6 0
BBX 5 10 0 -2
BITMAP
10
28
00
C8
48
48
58
28
08
70
ENDCHAR
STARTCHAR U+0178
ENCODING 376
SWIDTH 666 0
DWIDTH 6 0
BBX 5 8 0 0
BITMAP
50
00
D8
50
50
20
20
20
ENDCHAR
STARTCHAR U+0179
ENCODING 377
SWIDTH 555 0
DWIDTH 5 0
BBX 4 9 0 0
BITMAP
20
40
00
F0
90
20
40
90
F0
ENDCHAR
STARTCHAR U+017A
ENCODING 378
SWIDTH 666 0
DWIDTH 6 0
BBX 5 8 0 0
BITMAP
20
40
00
F8
90
20
48
F8
ENDCHAR
STARTCHAR U+017B
ENCODING 379
SWIDTH 555 0
DWIDTH 5 0
BBX 4 8 0 0
BITMAP
20
00
F0
90
20
40
90
F0
ENDCHAR
STARTCHAR U+017C
ENCODING 380
SWIDTH 666 0
DWIDTH 6 0
BBX 5 7 0 0
BITMAP
20
00
F8
90
20
48
F8
ENDCHAR
STARTCHAR U+017D
ENCODING 381
SWIDTH 555 0
DWIDTH 5 0
BBX 4 9 0 0
BITMAP
50
20
00
F0
90
20
40
90
F0
ENDCHAR
STARTCHAR U+017E
ENCODING 382
SWIDTH 666 0
DWIDTH 6 0
BBX 5 8 0 0
BITMAP
50
20
00
F8
90
20
48
F8
ENDCHAR
STARTCHAR U+017F
ENCODING 383
SWIDTH 555 0
DWIDTH 5 0
BBX 4 7 0 0
BITMAP
30
40
40
C0
40
40
E0
ENDCHAR
STARTCHAR U+0401
ENCODING 1025
SWIDTH 555 0
DWIDTH 5 0
BBX 4 9 0 0
BITMAP
50
00
F0
90
80
E0
80
80
F0
ENDCHAR
STARTCHAR U+0404
ENCODING 1028
SWIDTH 555 0
DWIDTH 5 0
BBX 4 7 0 0
BITMAP
60
90
80
E0
80
90
60
ENDCHAR
STARTCHAR U+0406
ENCODING 1030
SWIDTH 444 0
DWIDTH 4 0
BBX 3 7 0 0
BITMAP
E0
40
40
40
40
40
E0
ENDCHAR
STARTCHAR U+0407
ENCODING 1031
SWIDTH 444 0
DWIDTH 4 0
BBX 3 9 0 0
BITMAP
A0
00
E0
40
40
40
40
40
E0
ENDCHAR
STARTCHAR U+0410
ENCODING 1040
SWIDTH 666 0
DWIDTH 6 0
BBX 5 7 0 0
BITMAP
20
20
50
50
70
88
98
ENDCHAR
STARTCHAR U+0411
ENCODING 1041
SWIDTH 666 0
DWIDTH 6 0
BBX 5 7 0 0
BITMAP
F8
48
40
70
48
48
F0
ENDCHAR
STARTCHAR U+0412
ENCODING 1042
SWIDTH 666 0
DWIDTH 6 0
BBX 5 7 0 0
BITMAP
F0
48
48
70
48
48
F0
ENDCHAR
STARTCHAR U+0413
ENCODING 1043
SWIDTH 555 0
DWIDTH 5 0
BBX 4 7 0 0
BITMAP
F0
80
80
80
80
80
C0
ENDCHAR
STARTCHAR U+0414
ENCODING 1044
SWIDTH 777 0
DWIDTH 7 0
BBX 6 8 0 -1
BITMAP
78
28
28
28
28
48
FC
84
ENDCHAR
STARTCHAR U+0415
ENCODING 1045
SWIDTH 555 0
DWIDTH 5 0
BBX 4 7 0 0
BITMAP
F0
90
80
E0
80
80
F0
ENDCHAR
STARTCHAR U+0416
ENCODING 1046
SWIDTH 666 0
DWIDTH 6 0
BBX 5 7 0 0
BITMAP
A8
A8
A8
70
A8
A8
A8
ENDCHAR
STARTCHAR U+0417
ENCODING 1047
SWIDTH 555 0
DWIDTH 5 0
BBX 4 7 0 0
BITMAP
60
90
10
60
10
90
60
ENDCHAR
STARTCHAR U+0418
ENCODING 1048
SWIDTH 666 0
DWIDTH 6 0
BBX 5 7 0 0
BITMAP
C8
58
58
68
68
48
C8
ENDCHAR
STARTCHAR U+0419
ENCODING 1049
SWIDTH 666 0
DWIDTH 6 0
BBX 5 10 0 0
BITMAP
48
30
00
C8
58
58
68
68
48
C8
ENDCHAR
STARTCHAR U+041A
ENCODING 1050
SWIDTH 666 0
DWIDTH 6 0
BBX 5 7 0 0
BITMAP
D8
90
A0
C0
A0
90
98
ENDCHAR
STARTCHAR U+041B
ENCODING 1051
SWIDTH 666 0
DWIDTH 6 0
BBX 5 7 0 0
BITMAP
78
28
28
28
28
48
88
ENDCHAR
STARTCHAR U+041C
ENCODING 1052
SWIDTH 777 0
DWIDTH 7 0
BBX 6 7 0 0
BITMAP
C4
6C
6C
54
54
44
C4
ENDCHAR
STARTCHAR U+041D
ENCODING 1053
SWIDTH 666 0
DWIDTH 6 0
BBX 5 7 0 0
BITMAP
C8
48
48
78
48
48
C8
ENDCHAR
STARTCHAR U+041E
ENCODING 1054
SWIDTH 555 0
DWIDTH 5 0
BBX 4 7 0 0
BITMAP
60
90
90
90
90
90
60
ENDCHAR
STARTCHAR U+041F
ENCODING 1055
SWIDTH 666 0
DWIDTH 6 0
BBX 5 7 0 0
BITMAP
F8
48
48
48
48
48
C8
ENDCHAR
STARTCHAR U+0420
ENCODING 1056
SWIDTH 666 0
DWIDTH 6 0
BBX 5 7 0 0
BITMAP
F0
48
48
70
40
40
C0
ENDCHAR
STARTCHAR U+0421
ENCODING 1057
SWIDTH 555 0
DWIDTH 5 0
BBX 4 7 0 0
BITMAP
70
90
80
80
80
90
60
ENDCHAR
STARTCHAR U+0422
ENCODING 1058
SWIDTH 666 0
DWIDTH 6 0
BBX 5 7 0 0
BITMAP
F8
A8
20
20
20
20
70
ENDCHAR
STARTCHAR U+0423
ENCODING 1059
SWIDTH 666 0
DWIDTH 6 0
BBX 5 7 0 0
BITMAP
98
88
50
50
20
20
C0
ENDCHAR
STARTCHAR U+0424
ENCODING 1060
SWIDTH 666 0
DWIDTH 6 0
BBX 5 7 0 0
BITMAP
20
70
A8
A8
A8
70
20
ENDCHAR
STARTCHAR U+0425
ENCODING 1061
SWIDTH 666 0
DWIDTH 6 0
BBX 5 7 0 0
BITMAP
D8
50
50
20
50
50
D8
ENDCHAR
STARTCHAR U+0426
ENCODING 1062
SWIDTH 666 0
DWIDTH 6 0
BBX 5 8 0 -1
BITMAP
90
90
90
90
90
90
F8
08
ENDCHAR
STARTCHAR U+0427
ENCODING 1063
SWIDTH 555 0
DWIDTH 5 0
BBX 4 7 0 0
BITMAP
90
90
90
70
10
10
30
ENDCHAR
STARTCHAR U+0428
ENCODING 1064
SWIDTH 666 0
DWIDTH 6 0
BBX 5 7 0 0
BITMAP
A8
A8
A8
A8
A8
A8
F8
ENDCHAR
STARTCHAR U+0429
ENCODING 1065
SWIDTH 777 0
DWIDTH 7 0
BBX 6 8 0 -1
BITMAP
A8
A8
A8
A8
A8
A8
FC
04
ENDCHAR
STARTCHAR U+042A
ENCODING 1066
SWIDTH 777 0
DWIDTH 7 0
BBX 6 7 0 0
BITMAP
E0
A0
20
38
24
24
78
ENDCHAR
STARTCHAR U+042B
ENCODING 1067
SWIDTH 1000 0
DWIDTH 9 0
BBX 8 7 0 0
BITMAP
C7
42
42
72
4A
4A
F7
ENDCHAR
STARTCHAR U+042C
ENCODING 1068
SWIDTH 666 0
DWIDTH 6 0
BBX 5 7 0 0
BITMAP
C0
40
40
70
48
48
F0
ENDCHAR
STARTCHAR U+042D
ENCODING 1069
SWIDTH 555 0
DWIDTH 5 0
BBX 4 7 0 0
BITMAP
60
90
10
70
10
90
60
ENDCHAR
STARTCHAR U+042E
ENCODING 1070
SWIDTH 888 0
DWIDTH 8 0
BBX 7 7 0 0
BITMAP
EC
52
52
72
52
52
EC
ENDCHAR
STARTCHAR U+042F
ENCODING 1071
SWIDTH 666 0
DWIDTH 6 0
BBX 5 7 0 0
BITMAP
78
90
90
70
50
90
98
ENDCHAR
STARTCHAR U+0430
ENCODING 1072
SWIDTH 555 0
DWIDTH 5 0
BBX 4 5 0 0
BITMAP
60
10
70
90
70
ENDCHAR
STARTCHAR U+0431
ENCODING 1073
SWIDTH 555 0
DWIDTH 5 0
BBX 4 7 0 0
BITMAP
60
80
A0
D0
90
90
60
ENDCHAR
STARTCHAR U+0432
ENCODING 1074
SWIDTH 555 0
DWIDTH 5 0
BBX 4 5 0 0
BITMAP
E0
90
E0
90
E0
ENDCHAR
STARTCHAR U+0433
ENCODING 1075
SWIDTH 555 0
DWIDTH 5 0
BBX 4 5 0 0
BITMAP
F0
90
80
80
80
ENDCHAR
STARTCHAR U+0434
ENCODING 1076
SWIDTH 666 0
DWIDTH 6 0
BBX 5 6 0 -1
BITMAP
70
50
50
90
F8
88
ENDCHAR
STARTCHAR U+0435
ENCODING 1077
SWIDTH 555 0
DWIDTH 5 0
BBX 4 5 0 0
BITMAP
60
90
F0
80
60
ENDCHAR
STARTCHAR U+0436
ENCODING 1078
SWIDTH 666 0
DWIDTH 6 0
BBX 5 5 0 0
BITMAP
A8
A8
70
A8
A8
ENDCHAR
STARTCHAR U+0437
ENCODING 1079
SWIDTH 555 0
DWIDTH 5 0
BBX 4 5 0 0
BITMAP
60
90
20
90
60
ENDCHAR
STARTCHAR U+0438
ENCODING 1080
SWIDTH 555 0
DWIDTH 5 0
BBX 4 5 0 0
BITMAP
90
B0
D0
90
90
ENDCHAR
STARTCHAR U+0439
ENCODING 1081
SWIDTH 555 0
DWIDTH 5 0
BBX 4 8 0 0
BITMAP
90
60
00
90
B0
D0
90
90
ENDCHAR
STARTCHAR U+043A
ENCODING 1082
SWIDTH 555 0
DWIDTH 5 0
BBX 4 5 0 0
BITMAP
90
A0
C0
A0
B0
ENDCHAR
STARTCHAR U+043B
ENCODING 1083
SWIDTH 666 0
DWIDTH 6 0
BBX 5 5 0 0
BITMAP
78
28
28
48
88
ENDCHAR
STARTCHAR U+043C
ENCODING 1084
SWIDTH 666 0
DWIDTH 6 0
BBX 5 5 0 0
BITMAP
88
D8
A8
88
98
ENDCHAR
STARTCHAR U+043D
ENCODING 1085
SWIDTH 555 0
DWIDTH 5 0
BBX 4 5 0 0
BITMAP
90
90
F0
90
B0
ENDCHAR
STARTCHAR U+043E
ENCODING 1086
SWIDTH 555 0
DWIDTH 5 0
BBX 4 5 0 0
BITMAP
60
90
90
90
60
ENDCHAR
STARTCHAR U+043F
ENCODING 1087
SWIDTH 555 0
DWIDTH 5 0
BBX 4 5 0 0
BITMAP
F0
90
90
90
90
ENDCHAR
STARTCHAR U+0440
ENCODING 1088
SWIDTH 555 0
DWIDTH 5 0
BBX 4 7 0 -2
BITMAP
A0
D0
90
90
E0
80
C0
ENDCHAR
STARTCHAR U+0441
ENCODING 1089
SWIDTH 555 0
DWIDTH 5 0
BBX 4 5 0 0
BITMAP
70
90
80
90
60
ENDCHAR
STARTCHAR U+0442
ENCODING 1090
SWIDTH 666 0
DWIDTH 6 0
BBX 5 5 0 0
BITMAP
F8
A8
20
20
70
ENDCHAR
STARTCHAR U+0443
ENCODING 1091
SWIDTH 666 0
DWIDTH 6 0
BBX 5 7 0 -2
BITMAP
C8
48
48
58
28
08
70
ENDCHAR
STARTCHAR U+0444
ENCODING 1092
SWIDTH 666 0
DWIDTH 6 0
BBX 5 7 0 -1
BITMAP
20
70
A8
A8
A8
70
20
ENDCHAR
STARTCHAR U+0445
ENCODING 1093
SWIDTH 666 0
DWIDTH 6 0
BBX 5 5 0 0
BITMAP
D8
50
20
50
D8
ENDCHAR
STARTCHAR U+0446
ENCODING 1094
SWIDTH 666 0
DWIDTH 6 0
BBX 5 6 0 -1
BITMAP
90
90
90
90
F8
08
ENDCHAR
STARTCHAR U+0447
ENCODING 1095
SWIDTH 555 0
DWIDTH 5 0
BBX 4 5 0 0
BITMAP
90
90
70
10
30
ENDCHAR
STARTCHAR U+0448
ENCODING 1096
SWIDTH 666 0
DWIDTH 6 0
BBX 5 5 0 0
BITMAP
A8
A8
A8
A8
F8
ENDCHAR
STARTCHAR U+0449
ENCODING 1097
SWIDTH 777 0
DWIDTH 7 0
BBX 6 6 0 -1
BITMAP
A8
A8
A8
A8
FC
04
ENDCHAR
STARTCHAR U+044A
ENCODING 1098
SWIDTH 777 0
DWIDTH 7 0
BBX 6 5 0 0
BITMAP
E0
A0
38
24
38
ENDCHAR
STARTCHAR U+044B
ENCODING 1099
SWIDTH 666 0
DWIDTH 6 0
BBX 5 5 0 0
BITMAP
88
88
E8
98
E8
ENDCHAR
STARTCHAR U+044C
ENCODING 1100
SWIDTH 555 0
DWIDTH 5 0
BBX 4 5 0 0
BITMAP
80
80
E0
90
E0
ENDCHAR
STARTCHAR U+044D
ENCODING 1101
SWIDTH 555 0
DWIDTH 5 0
BBX 4 5 0 0
BITMAP
60
90
30
90
60
ENDCHAR
STARTCHAR U+044E
ENCODING 1102
SWIDTH 666 0
DWIDTH 6 0
BBX 5 5 0 0
BITMAP
90
A8
E8
A8
90
ENDCHAR
STARTCHAR U+044F
ENCODING 1103
SWIDTH 555 0
DWIDTH 5 0
BBX 4 5 0 0
BITMAP
70
90
70
50
90
ENDCHAR
STARTCHAR U+0451
ENCODING 1105
SWIDTH 555 0
DWIDTH 5 0
BBX 4 7 0 0
BITMAP
50
00
60
90
F0
80
60
ENDCHAR
STARTCHAR U+0454
ENCODING 1108
SWIDTH 555 0
DWIDTH 5 0
BBX 4 5 0 0
BITMAP
60
90
C0
90
60
ENDCHAR
STARTCHAR U+0456
ENCODING 1110
SWIDTH 444 0
DWIDTH 4 0
BBX 3 7 0 0
BITMAP
40
00
C0
40
40
40
E0
ENDCHAR
STARTCHAR U+0457
ENCODING 1111
SWIDTH 444 0
DWIDTH 4 0
BBX 3 7 0 0
BITMAP
A0
00
C0
40
40
40
E0
ENDCHAR
STARTCHAR U+0490
ENCODING 1168
SWIDTH 666 0
DWIDTH 6 0
BBX 5 8 0 0
BITMAP
08
F8
40
40
40
40
40
E0
ENDCHAR
STARTCHAR U+0491
ENCODING 1169
SWIDTH 555 0
DWIDTH 5 0
BBX 4 6 0 0
BITMAP
10
F0
80
80
80
80
ENDCHAR
STARTCHAR U+1E9E
ENCODING 7838
SWIDTH 555 0
DWIDTH 5 0
BBX 4 7 0 0
BITMAP
60
90
90
A0
90
90
A0
ENDCHAR
STARTCHAR U+2018
ENCODING 8216
SWIDTH 333 0
DWIDTH 3 0
BBX 2 2 0 5
BITMAP
80
40
ENDCHAR
STARTCHAR U+2019
ENCODING 8217
SWIDTH 333 0
DWIDTH 3 0
BBX 2 2 0 5
BITMAP
40
80
ENDCHAR
STARTCHAR U+201A
ENCODING 8218
SWIDTH 333 0
DWIDTH 3 0
BBX 2 2 0 -1
BITMAP
40
80
ENDCHAR
STARTCHAR U+201B
ENCODING 8219
SWIDTH 333 0
DWIDTH 3 0
BBX 2 2 0 5
BITMAP
80
40
ENDCHAR
STARTCHAR U+201C
ENCODING 8220
SWIDTH 555 0
DWIDTH 5 0
BBX 4 2 0 5
BITMAP
A0
50
ENDCHAR
STARTCHAR U+201D
ENCODING 8221
SWIDTH 555 0
DWIDTH 5 0
BBX 4 2 0 5
BITMAP
50
A0
ENDCHAR
STARTCHAR U+201E
ENCODING 8222
SWIDTH 555 0
DWIDTH 5 0
BBX 4 2 0 -1
BITMAP
50
A0
ENDCHAR
STARTCHAR U+201F
ENCODING 8223
SWIDTH 555 0
DWIDTH 5 0
BBX 4 2 0 5
BITMAP
A0
50
ENDCHAR
STARTCHAR U+2022
ENCODING 8226
SWIDTH 333 0
DWIDTH 3 0
BBX 2 2 0 3
BITMAP
C0
C0
ENDCHAR
STARTCHAR U+2026
ENCODING 8230
SWIDTH 888 0
DWIDTH 8 0
BBX 5 1 1 3
BITMAP
A8
ENDCHAR
STARTCHAR U+2039
ENCODING 8249
SWIDTH 333 0
DWIDTH 3 0
BBX 2 3 0 2
BITMAP
40
80
40
ENDCHAR
STARTCHAR U+203A
ENCODING 8250
SWIDTH 333 0
DWIDTH 3 0
BBX 2 3 0 2
BITMAP
80
40
80
ENDCHAR
STARTCHAR U+20AC
ENCODING 8364
SWIDTH 666 0
DWIDTH 6 0
BBX 5 7 0 0
BITMAP
38
48
E0
40
E0
48
30
ENDCHAR
STARTCHAR U+3041
ENCODING 12353
SWIDTH 888 0
DWIDTH 8 0
BBX 6 6 1 0
BITMAP
20
78
30
68
B4
64
ENDCHAR
STARTCHAR U+3042
ENCODING 12354
SWIDTH 888 0
DWIDTH 8 0
BBX 7 7 0 0
BITMAP
30
18
64
3C
6A
B2
64
ENDCHAR
STARTCHAR U+3043
ENCODING 12355
SWIDTH 888 0
DWIDTH 8 0
BBX 6 5 1 0
BITMAP
88
84
84
A0
40
ENDCHAR
STARTCHAR U+3044
ENCODING 12356
SWIDTH 888 0
DWIDTH 8 0
BBX 7 6 0 0
BITMAP
80
44
82
82
50
20
ENDCHAR
STARTCHAR U+3045
ENCODING 12357
SWIDTH 888 0
DWIDTH 8 0
BBX 5 6 1 0
BITMAP
60
30
C8
08
10
60
ENDCHAR
STARTCHAR U+3046
ENCODING 12358
SWIDTH 888 0
DWIDTH 8 0
BBX 6 7 0 0
BITMAP
20
18
B8
44
04
08
30
ENDCHAR
STARTCHAR U+3047
ENCODING 12359
SWIDTH 888 0
DWIDTH 8 0
BBX 5 6 1 0
BITMAP
60
30
D0
20
60
98
ENDCHAR
STARTCHAR U+3048
ENCODING 12360
SWIDTH 888 0
DWIDTH 8 0
BBX 7 7 0 0
BITMAP
20
18
BC
48
10
28
C6
ENDCHAR
STARTCHAR U+3049
ENCODING 12361
SWIDTH 888 0
DWIDTH 8 0
BBX 6 6 1 0
BITMAP
20
68
24
78
A4
48
ENDCHAR
STARTCHAR U+304A
ENCODING 12362
SWIDTH 888 0
DWIDTH 8 0
BBX 7 7 0 0
BITMAP
20
B4
62
2C
72
A2
4C
ENDCHAR
STARTCHAR U+304B
ENCODING 12363
SWIDTH 888 0
DWIDTH 8 0
BBX 7 7 0 0
BITMAP
60
28
B4
6A
2A
48
B0
ENDCHAR
STARTCHAR U+304C
ENCODING 12364
SWIDTH 888 0
DWIDTH 8 0
BBX 7 7 0 0
BITMAP
6A
20
B4
6A
2A
48
B0
ENDCHAR
STARTCHAR U+304D
ENCODING 12365
SWIDTH 888 0
DWIDTH 8 0
BBX 7 7 0 0
BITMAP
18
4C
38
8E
74
40
3C
ENDCHAR
STARTCHAR U+304E
ENCODING 12366
SWIDTH 888 0
DWIDTH 8 0
BBX 7 7 0 0
BITMAP
34
9C
70
8E
74
40
3C
ENDCHAR
STARTCHAR U+304F
ENCODING 12367
SWIDTH 888 0
DWIDTH 8 0
BBX 5 7 1 0
BITMAP
18
10
60
80
60
10
08
ENDCHAR
STARTCHAR U+3050
ENCODING 12368
SWIDTH 888 0
DWIDTH 8 0
BBX 5 7 1 0
BITMAP
18
10
68
80
60
10
08
ENDCHAR
STARTCHAR U+3051
ENCODING 12369
SWIDTH 888 0
DWIDTH 8 0
BBX 7 7 0 0
BITMAP
8C
46
9C
84
A4
48
10
ENDCHAR
STARTCHAR U+3052
ENCODING 12370
SWIDTH 888 0
DWIDTH 8 0
BBX 7 7 0 0
BITMAP
8A
46
9C
84
A4
48
10
ENDCHAR
STARTCHAR U+3053
ENCODING 12371
SWIDTH 888 0
DWIDTH 8 0
BBX 7 6 0 0
BITMAP
5C
28
00
40
82
7C
ENDCHAR
STARTCHAR U+3054
ENCODING 12372
SWIDTH 888 0
DWIDTH 8 0
BBX 7 7 0 0
BITMAP
0A
5C
28
00
40
82
7C
ENDCHAR
STARTCHAR U+3055
ENCODING 12373
SWIDTH 888 0
DWIDTH 8 0
BBX 7 7 0 0
BITMAP
18
8E
78
04
2C
40
3C
ENDCHAR
STARTCHAR U+3056
ENCODING 12374
SWIDTH 888 0
DWIDTH 8 0
BBX 7 7 0 0
BITMAP
1A
8E
78
04
2C
40
3C
ENDCHAR
STARTCHAR U+3057
ENCODING 12375
SWIDTH 888 0
DWIDTH 8 0
BBX 5 7 1 0
BITMAP
80
40
80
80
88
90
60
ENDCHAR
STARTCHAR U+3058
ENCODING 12376
SWIDTH 888 0
DWIDTH 8 0
BBX 5 7 1 0
BITMAP
90
48
80
80
88
90
60
ENDCHAR
STARTCHAR U+3059
ENCODING 12377
SWIDTH 888 0
DWIDTH 8 0
BBX 7 7 0 0
BITMAP
18
8E
78
28
18
08
30
ENDCHAR
STARTCHAR U+305A
ENCODING 12378
SWIDTH 888 0
DWIDTH 8 0
BBX 7 7 0 0
BITMAP
1A
8E
78
28
18
08
30
ENDCHAR
STARTCHAR U+305B
ENCODING 12379
SWIDTH 888 0
DWIDTH 8 0
BBX 7 7 0 0
BITMAP
0C
24
AE
74
28
20
1C
ENDCHAR
STARTCHAR U+305C
ENCODING 12380
SWIDTH 888 0
DWIDTH 8 0
BBX 7 7 0 0
BITMAP
0A
24
2E
F4
2C
20
1C
ENDCHAR
STARTCHAR U+305D
ENCODING 12381
SWIDTH 888 0
DWIDTH 8 0
BBX 7 7 0 0
BITMAP
5C
28
10
BE
50
10
0C
ENDCHAR
STARTCHAR U+305E
ENCODING 12382
SWIDTH 888 0
DWIDTH 8 0
BBX 7 7 0 0
BITMAP
5C
2A
10
BE
50
10
0C
ENDCHAR
STARTCHAR U+305F
ENCODING 12383
SWIDTH 888 0
DWIDTH 8 0
BBX 7 7 0 0
BITMAP
60
30
EE
24
48
50
8E
ENDCHAR
STARTCHAR U+3060
ENCODING 12384
SWIDTH 888 0
DWIDTH 8 0
BBX 7 7 0 0
BITMAP
6A
30
EE
24
48
50
8E
ENDCHAR
STARTCHAR U+3061
ENCODING 12385
SWIDTH 888 0
DWIDTH 8 0
BBX 7 7 0 0
BITMAP
30
9C
60
3C
42
02
1C
ENDCHAR
STARTCHAR U+3062
ENCODING 12386
SWIDTH 888 0
DWIDTH 8 0
BBX 7 7 0 0
BITMAP
32
9E
60
3C
42
02
1C
ENDCHAR
STARTCHAR U+3063
ENCODING 12387
SWIDTH 888 0
DWIDTH 8 0
BBX 5 4 1 0
BITMAP
B0
48
10
60
ENDCHAR
STARTCHAR U+3064
ENCODING 12388
SWIDTH 888 0
DWIDTH 8 0
BBX 7 5 0 1
BITMAP
9C
62
02
04
18
ENDCHAR
STARTCHAR U+3065
ENCODING 12389
SWIDTH 888 0
DWIDTH 8 0
BBX 7 6 0 1
BITMAP
0A
9C
62
02
04
18
ENDCHAR
STARTCHAR U+3066
ENCODING 12390
SWIDTH 888 0
DWIDTH 8 0
BBX 7 7 0 0
BITMAP
86
78
10
20
20
10
0C
ENDCHAR
STARTCHAR U+3067
ENCODING 12391
SWIDTH 888 0
DWIDTH 8 0
BBX 7 7 0 0
BITMAP
86
78
14
20
20
10
0C
ENDCHAR
STARTCHAR U+3068
ENCODING 12392
SWIDTH 888 0
DWIDTH 8 0
BBX 6 7 1 0
BITMAP
C0
48
58
20
40
80
7C
ENDCHAR
STARTCHAR U+3069
ENCODING 12393
SWIDTH 888 0
DWIDTH 8 0
BBX 6 7 1 0
BITMAP
D4
48
58
20
40
80
7C
ENDCHAR
STARTCHAR U+306A
ENCODING 12394
SWIDTH 888 0
DWIDTH 8 0
BBX 7 7 0 0
BITMAP
60
34
E2
44
9C
24
1A
ENDCHAR
STARTCHAR U+306B
ENCODING 12395
SWIDTH 888 0
DWIDTH 8 0
BBX 7 7 0 0
BITMAP
80
5C
88
80
90
A2
5C
ENDCHAR
STARTCHAR U+306C
ENCODING 12396
SWIDTH 888 0
DWIDTH 8 0
BBX 7 7 0 0
BITMAP
18
48
7C
52
B6
AA
54
ENDCHAR
STARTCHAR U+306D
ENCODING 12397
SWIDTH 888 0
DWIDTH 8 0
BBX 7 7 0 0
BITMAP
60
2C
B2
62
66
AA
24
ENDCHAR
STARTCHAR U+306E
ENCODING 12398
SWIDTH 888 0
DWIDTH 8 0
BBX 7 6 0 0
BITMAP
38
54
92
A2
44
18
ENDCHAR
STARTCHAR U+306F
ENCODING 12399
SWIDTH 888 0
DWIDTH 8 0
BBX 7 7 0 0
BITMAP
8C
46
9C
84
9C
A4
5A
ENDCHAR
STARTCHAR U+3070
ENCODING 12400
SWIDTH 888 0
DWIDTH 8 0
BBX 7 7 0 0
BITMAP
8A
46
9C
84
9C
A4
5A
ENDCHAR
STARTCHAR U+3071
ENCODING 12401
SWIDTH 888 0
DWIDTH 8 0
BBX 7 7 0 0
BITMAP
8C
4A
9C
84
9C
A4
5A
ENDCHAR
STARTCHAR U+3072
ENCODING 12402
SWIDTH 888 0
DWIDTH 8 0
BBX 7 7 0 0
BITMAP
28
E4
46
44
44
48
30
ENDCHAR
STARTCHAR U+3073
ENCODING 12403
SWIDTH 888 0
DWIDTH 8 0
BBX 7 7 0 0
BITMAP
2A
E4
46
44
44
48
30
ENDCHAR
STARTCHAR U+3074
ENCODING 12404
SWIDTH 888 0
DWIDTH 8 0
BBX 7 7 0 0
BITMAP
2C
EA
46
44
44
48
30
ENDCHAR
STARTCHAR U+3075
ENCODING 12405
SWIDTH 888 0
DWIDTH 8 0
BBX 7 7 0 0
BITMAP
10
08
10
10
3C
AA
DA
ENDCHAR
STARTCHAR U+3076
ENCODING 12406
SWIDTH 888 0
DWIDTH 8 0
BBX 7 7 0 0
BITMAP
10
0A
10
10
1C
AA
DA
ENDCHAR
STARTCHAR U+3077
ENCODING 12407
SWIDTH 888 0
DWIDTH 8 0
BBX 7 7 0 0
BITMAP
14
0A
14
10
1C
AA
DA
ENDCHAR
STARTCHAR U+3078
ENCODING 12408
SWIDTH 888 0
DWIDTH 8 0
BBX 7 4 0 2
BITMAP
20
50
C8
06
ENDCHAR
STARTCHAR U+3079
ENCODING 12409
SWIDTH 888 0
DWIDTH 8 0
BBX 7 5 0 2
BITMAP
0A
20
50
C8
06
ENDCHAR
STARTCHAR U+307A
ENCODING 12410
SWIDTH 888 0
DWIDTH 8 0
BBX 7 5 0 2
BITMAP
04
2A
54
C8
06
ENDCHAR
STARTCHAR U+307B
ENCODING 12411
SWIDTH 888 0
DWIDTH 8 0
BBX 7 7 0 0
BITMAP
86
5C
86
9C
84
BC
5A
ENDCHAR
STARTCHAR U+307C
ENCODING 12412
SWIDTH 888 0
DWIDTH 8 0
BBX 7 7 0 0
BITMAP
8A
5C
86
9C
84
BC
5A
ENDCHAR
STARTCHAR U+307D
ENCODING 12413
SWIDTH 888 0
DWIDTH 8 0
BBX 7 7 0 0
BITMAP
84
5A
86
9C
84
BC
5A
ENDCHAR
STARTCHAR U+307E
ENCODING 12414
SWIDTH 888 0
DWIDTH 8 0
BBX 6 7 1 0
BITMAP
30
9C
70
98
70
98
64
ENDCHAR
STARTCHAR U+307F
ENCODING 12415
SWIDTH 888 0
DWIDTH 8 0
BBX 7 7 0 0
BITMAP
30
50
24
7C
A6
48
10
ENDCHAR
STARTCHAR U+3080
ENCODING 12416
SWIDTH 888 0
DWIDTH 8 0
BBX 7 7 0 0
BITMAP
60
34
E2
64
A2
42
3C
ENDCHAR
STARTCHAR U+3081
ENCODING 12417
SWIDTH 888 0
DWIDTH 8 0
BBX 7 7 0 0
BITMAP
18
48
7C
52
B2
A2
54
ENDCHAR
STARTCHAR U+3082
ENCODING 12418
SWIDTH 888 0
DWIDTH 8 0
BBX 6 7 1 0
BITMAP
20
A0
70
C0
74
44
38
ENDCHAR
STARTCHAR U+3083
ENCODING 12419
SWIDTH 888 0
DWIDTH 8 0
BBX 6 6 1 0
BITMAP
10
58
54
E8
20
10
ENDCHAR
STARTCHAR U+3084
ENCODING 12420
SWIDTH 888 0
DWIDTH 8 0
BBX 7 7 0 0
BITMAP
68
4C
32
E4
20
10
10
ENDCHAR
STARTCHAR U+3085
ENCODING 12421
SWIDTH 888 0
DWIDTH 8 0
BBX 6 6 1 0
BITMAP
10
B8
D4
B8
10
20
ENDCHAR
STARTCHAR U+3086
ENCODING 12422
SWIDTH 888 0
DWIDTH 8 0
BBX 7 7 0 0
BITMAP
08
9C
AA
AA
DC
48
10
ENDCHAR
STARTCHAR U+3087
ENCODING 12423
SWIDTH 888 0
DWIDTH 8 0
BBX 5 6 1 0
BITMAP
30
10
18
70
90
68
ENDCHAR
STARTCHAR U+3088
ENCODING 12424
SWIDTH 888 0
DWIDTH 8 0
BBX 6 7 1 0
BITMAP
30
10
1C
10
70
98
64
ENDCHAR
STARTCHAR U+3089
ENCODING 12425
SWIDTH 888 0
DWIDTH 8 0
BBX 6 7 1 0
BITMAP
40
30
C0
B8
C4
84
38
ENDCHAR
STARTCHAR U+308A
ENCODING 12426
SWIDTH 888 0
DWIDTH 8 0
BBX 5 7 1 0
BITMAP
D0
68
48
48
08
10
20
ENDCHAR
STARTCHAR U+308B
ENCODING 12427
SWIDTH 888 0
DWIDTH 8 0
BBX 6 7 1 0
BITMAP
B8
50
20
78
84
64
78
ENDCHAR
STARTCHAR U+308C
ENCODING 12428
SWIDTH 888 0
DWIDTH 8 0
BBX 7 7 0 0
BITMAP
60
28
B4
64
64
A6
24
ENDCHAR
STARTCHAR U+308D
ENCODING 12429
SWIDTH 888 0
DWIDTH 8 0
BBX 6 7 1 0
BITMAP
B8
50
20
78
84
04
78
ENDCHAR
STARTCHAR U+308E
ENCODING 12430
SWIDTH 888 0
DWIDTH 8 0
BBX 6 6 1 0
BITMAP
60
28
B4
64
A4
28
ENDCHAR
STARTCHAR U+308F
ENCODING 12431
SWIDTH 888 0
DWIDTH 8 0
BBX 7 7 0 0
BITMAP
60
2C
B2
62
62
A4
28
ENDCHAR
STARTCHAR U+3090
ENCODING 12432
SWIDTH 888 0
DWIDTH 8 0
BBX 7 7 0 0
BITMAP
B0
50
3C
52
A6
AA
44
ENDCHAR
STARTCHAR U+3091
ENCODING 12433
SWIDTH 888 0
DWIDTH 8 0
BBX 7 7 0 0
BITMAP
58
30
38
44
18
6C
92
ENDCHAR
STARTCHAR U+3092
ENCODING 12434
SWIDTH 888 0
DWIDTH 8 0
BBX 7 7 0 0
BITMAP
30
18
62
36
D8
28
1E
ENDCHAR
STARTCHAR U+3093
ENCODING 12435
SWIDTH 888 0
DWIDTH 8 0
BBX 7 7 0 0
BITMAP
30
10
20
30
52
52
8C
ENDCHAR
STARTCHAR U+309B
ENCODING 12443
SWIDTH 888 0
DWIDTH 8 0
BBX 4 2 0 5
BITMAP
A0
50
ENDCHAR
STARTCHAR U+309C
ENCODING 12444
SWIDTH 888 0
DWIDTH 8 0
BBX 3 3 0 4
BITMAP
40
A0
40
ENDCHAR
STARTCHAR U+309D
ENCODING 12445
SWIDTH 888 0
DWIDTH 8 0
BBX 4 5 2 1
BITMAP
80
80
40
30
C0
ENDCHAR
STARTCHAR U+309E
ENCODING 12446
SWIDTH 888 0
DWIDTH 8 0
BBX 5 6 2 1
BITMAP
28
80
80
40
30
C0
ENDCHAR
STARTCHAR U+30A1
ENCODING 12449
SWIDTH 888 0
DWIDTH 8 0
BBX 5 5 1 0
BITMAP
98
68
30
20
40
ENDCHAR
STARTCHAR U+30A2
ENCODING 12450
SWIDTH 888 0
DWIDTH 8 0
BBX 6 7 1 0
BITMAP
9C
64
18
10
10
20
40
ENDCHAR
STARTCHAR U+30A3
ENCODING 12451
SWIDTH 888 0
DWIDTH 8 0
BBX 5 5 1 0
BITMAP
18
10
20
D0
10
ENDCHAR
STARTCHAR U+30A4
ENCODING 12452
SWIDTH 888 0
DWIDTH 8 0
BBX 6 7 0 0
BITMAP
0C
08
10
28
C8
08
08
ENDCHAR
STARTCHAR U+30A5
ENCODING 12453
SWIDTH 888 0
DWIDTH 8 0
BBX 5 6 1 0
BITMAP
60
38
C8
88
10
60
ENDCHAR
STARTCHAR U+30A6
ENCODING 12454
SWIDTH 888 0
DWIDTH 8 0
BBX 7 7 0 0
BITMAP
30
9E
62
42
04
08
30
ENDCHAR
STARTCHAR U+30A7
ENCODING 12455
SWIDTH 888 0
DWIDTH 8 0
BBX 5 4 1 0
BITMAP
70
20
38
C0
ENDCHAR
STARTCHAR U+30A8
ENCODING 12456
SWIDTH 888 0
DWIDTH 8 0
BBX 7 6 0 0
BITMAP
5C
30
10
10
3E
C0
ENDCHAR
STARTCHAR U+30A9
ENCODING 12457
SWIDTH 888 0
DWIDTH 8 0
BBX 5 6 1 0
BITMAP
30
98
70
30
D0
30
ENDCHAR
STARTCHAR U+30AA
ENCODING 12458
SWIDTH 888 0
DWIDTH 8 0
BBX 7 7 0 0
BITMAP
18
8E
78
18
28
C8
18
ENDCHAR
STARTCHAR U+30AB
ENCODING 12459
SWIDTH 888 0
DWIDTH 8 0
BBX 6 7 1 0
BITMAP
30
9C
74
24
24
54
88
ENDCHAR
STARTCHAR U+30AC
ENCODING 12460
SWIDTH 888 0
DWIDTH 8 0
BBX 6 7 1 0
BITMAP
34
9C
74
24
24
54
88
ENDCHAR
STARTCHAR U+30AD
ENCODING 12461
SWIDTH 888 0
DWIDTH 8 0
BBX 6 7 1 0
BITMAP
30
9C
70
9C
70
08
08
ENDCHAR
STARTCHAR U+30AE
ENCODING 12462
SWIDTH 888 0
DWIDTH 8 0
BBX 6 7 1 0
BITMAP
34
9C
70
9C
70
08
08
ENDCHAR
STARTCHAR U+30AF
ENCODING 12463
SWIDTH 888 0
DWIDTH 8 0
BBX 6 7 1 0
BITMAP
20
3C
24
C4
08
10
60
ENDCHAR
STARTCHAR U+30B0
ENCODING 12464
SWIDTH 888 0
DWIDTH 8 0
BBX 6 7 1 0
BITMAP
28
3C
24
C4
08
10
60
ENDCHAR
STARTCHAR U+30B1
ENCODING 12465
SWIDTH 888 0
DWIDTH 8 0
BBX 7 7 0 0
BITMAP
20
3E
24
C4
08
10
20
ENDCHAR
STARTCHAR U+30B2
ENCODING 12466
SWIDTH 888 0
DWIDTH 8 0
BBX 7 7 0 0
BITMAP
2A
3E
24
C4
08
10
20
ENDCHAR
STARTCHAR U+30B3
ENCODING 12467
SWIDTH 888 0
DWIDTH 8 0
BBX 6 5 1 1
BITMAP
BC
44
04
08
F8
ENDCHAR
STARTCHAR U+30B4
ENCODING 12468
SWIDTH 888 0
DWIDTH 8 0
BBX 6 6 1 1
BITMAP
14
BC
44
04
08
F8
ENDCHAR
STARTCHAR U+30B5
ENCODING 12469
SWIDTH 888 0
DWIDTH 8 0
BBX 7 7 0 0
BITMAP
0C
24
BE
64
24
08
10
ENDCHAR
STARTCHAR U+30B6
ENCODING 12470
SWIDTH 888 0
DWIDTH 8 0
BBX 7 7 0 0
BITMAP
0A
64
BE
64
24
08
10
ENDCHAR
STARTCHAR U+30B7
ENCODING 12471
SWIDTH 888 0
DWIDTH 8 0
BBX 6 7 1 0
BITMAP
40
20
80
44
08
30
C0
ENDCHAR
STARTCHAR U+30B8
ENCODING 12472
SWIDTH 888 0
DWIDTH 8 0
BBX 6 7 1 0
BITMAP
54
20
80
44
08
30
C0
ENDCHAR
STARTCHAR U+30B9
ENCODING 12473
SWIDTH 888 0
DWIDTH 8 0
BBX 7 6 0 0
BITMAP
5C
24
08
18
24
C2
ENDCHAR
STARTCHAR U+30BA
ENCODING 12474
SWIDTH 888 0
DWIDTH 8 0
BBX 7 7 0 0
BITMAP
0A
5C
24
08
18
24
C2
ENDCHAR
STARTCHAR U+30BB
ENCODING 12475
SWIDTH 888 0
DWIDTH 8 0
BBX 7 7 0 0
BITMAP
60
20
AE
74
28
20
1E
ENDCHAR
STARTCHAR U+30BC
ENCODING 12476
SWIDTH 888 0
DWIDTH 8 0
BBX 7 7 0 0
BITMAP
6A
20
2E
F4
28
20
1E
ENDCHAR
STARTCHAR U+30BD
ENCODING 12477
SWIDTH 888 0
DWIDTH 8 0
BBX 6 7 1 0
BITMAP
0C
84
44
48
08
10
20
ENDCHAR
STARTCHAR U+30BE
ENCODING 12478
SWIDTH 888 0
DWIDTH 8 0
BBX 6 7 1 0
BITMAP
14
8C
44
48
08
10
20
ENDCHAR
STARTCHAR U+30BF
ENCODING 12479
SWIDTH 888 0
DWIDTH 8 0
BBX 6 7 1 0
BITMAP
20
3C
24
D4
08
10
60
ENDCHAR
STARTCHAR U+30C0
ENCODING 12480
SWIDTH 888 0
DWIDTH 8 0
BBX 6 7 1 0
BITMAP
28
3C
24
D4
08
10
60
ENDCHAR
STARTCHAR U+30C1
ENCODING 12481
SWIDTH 888 0
DWIDTH 8 0
BBX 7 7 0 0
BITMAP
04
38
08
BE
48
10
20
ENDCHAR
STARTCHAR U+30C2
ENCODING 12482
SWIDTH 888 0
DWIDTH 8 0
BBX 7 7 0 0
BITMAP
0C
3A
08
BE
48
10
20
ENDCHAR
STARTCHAR U+30C3
ENCODING 12483
SWIDTH 888 0
DWIDTH 8 0
BBX 5 4 1 0
BITMAP
A8
48
10
60
ENDCHAR
STARTCHAR U+30C4
ENCODING 12484
SWIDTH 888 0
DWIDTH 8 0
BBX 7 6 0 0
BITMAP
22
92
52
04
08
30
ENDCHAR
STARTCHAR U+30C5
ENCODING 12485
SWIDTH 888 0
DWIDTH 8 0
BBX 7 7 0 0
BITMAP
0A
20
92
52
04
08
30
ENDCHAR
STARTCHAR U+30C6
ENCODING 12486
SWIDTH 888 0
DWIDTH 8 0
BBX 7 7 0 0
BITMAP
5C
20
9E
68
08
10
20
ENDCHAR
STARTCHAR U+30C7
ENCODING 12487
SWIDTH 888 0
DWIDTH 8 0
BBX 7 7 0 0
BITMAP
5A
20
9E
68
08
10
20
ENDCHAR
STARTCHAR U+30C8
ENCODING 12488
SWIDTH 888 0
DWIDTH 8 0
BBX 5 7 1 0
BITMAP
C0
40
40
60
58
40
40
ENDCHAR
STARTCHAR U+30C9
ENCODING 12489
SWIDTH 888 0
DWIDTH 8 0
BBX 5 7 1 0
BITMAP
D0
48
40
60
58
40
40
ENDCHAR
STARTCHAR U+30CA
ENCODING 12490
SWIDTH 888 0
DWIDTH 8 0
BBX 7 7 0 0
BITMAP
30
9E
70
10
10
20
40
ENDCHAR
STARTCHAR U+30CB
ENCODING 12491
SWIDTH 888 0
DWIDTH 8 0
BBX 7 6 0 0
BITMAP
5C
20
00
00
3E
C0
ENDCHAR
STARTCHAR U+30CC
ENCODING 12492
SWIDTH 888 0
DWIDTH 8 0
BBX 6 7 0 0
BITMAP
5C
24
08
30
18
24
C0
ENDCHAR
STARTCHAR U+30CD
ENCODING 12493
SWIDTH 888 0
DWIDTH 8 0
BBX 7 7 0 0
BITMAP
30
1C
68
18
34
D2
10
ENDCHAR
STARTCHAR U+30CE
ENCODING 12494
SWIDTH 888 0
DWIDTH 8 0
BBX 6 7 1 0
BITMAP
0C
08
08
10
10
20
C0
ENDCHAR
STARTCHAR U+30CF
ENCODING 12495
SWIDTH 888 0
DWIDTH 8 0
BBX 7 5 0 1
BITMAP
08
24
24
42
82
ENDCHAR
STARTCHAR U+30D0
ENCODING 12496
SWIDTH 888 0
DWIDTH 8 0
BBX 7 6 0 1
BITMAP
06
08
24
24
42
82
ENDCHAR
STARTCHAR U+30D1
ENCODING 12497
SWIDTH 888 0
DWIDTH 8 0
BBX 7 6 0 1
BITMAP
04
0A
24
24
42
82
ENDCHAR
STARTCHAR U+30D2
ENCODING 12498
SWIDTH 888 0
DWIDTH 8 0
BBX 6 7 1 0
BITMAP
C0
40
4C
70
40
40
3C
ENDCHAR
STARTCHAR U+30D3
ENCODING 12499
SWIDTH 888 0
DWIDTH 8 0
BBX 6 7 1 0
BITMAP
D4
40
4C
70
40
40
3C
ENDCHAR
STARTCHAR U+30D4
ENCODING 12500
SWIDTH 888 0
DWIDTH 8 0
BBX 6 7 1 0
BITMAP
C8
54
4C
70
40
40
3C
ENDCHAR
STARTCHAR U+30D5
ENCODING 12501
SWIDTH 888 0
DWIDTH 8 0
BBX 6 6 1 0
BITMAP
9C
64
04
08
10
60
ENDCHAR
STARTCHAR U+30D6
ENCODING 12502
SWIDTH 888 0
DWIDTH 8 0
BBX 6 7 1 0
BITMAP
14
9C
64
04
08
10
60
ENDCHAR
STARTCHAR U+30D7
ENCODING 12503
SWIDTH 888 0
DWIDTH 8 0
BBX 6 7 1 0
BITMAP
08
94
6C
04
08
10
60
ENDCHAR
STARTCHAR U+30D8
ENCODING 12504
SWIDTH 888 0
DWIDTH 8 0
BBX 7 5 0 1
BITMAP
20
50
C8
04
02
ENDCHAR
STARTCHAR U+30D9
ENCODING 12505
SWIDTH 888 0
DWIDTH 8 0
BBX 7 6 0 1
BITMAP
0A
20
50
C8
04
02
ENDCHAR
STARTCHAR U+30DA
ENCODING 12506
SWIDTH 888 0
DWIDTH 8 0
BBX 7 6 0 1
BITMAP
04
2A
54
C8
04
02
ENDCHAR
STARTCHAR U+30DB
ENCODING 12507
SWIDTH 888 0
DWIDTH 8 0
BBX 7 7 0 0
BITMAP
30
9C
70
10
54
B2
10
ENDCHAR
STARTCHAR U+30DC
ENCODING 12508
SWIDTH 888 0
DWIDTH 8 0
BBX 7 7 0 0
BITMAP
34
9E
70
10
54
B2
10
ENDCHAR
STARTCHAR U+30DD
ENCODING 12509
SWIDTH 888 0
DWIDTH 8 0
BBX 7 7 0 0
BITMAP
34
9A
74
10
54
92
30
ENDCHAR
STARTCHAR U+30DE
ENCODING 12510
SWIDTH 888 0
DWIDTH 8 0
BBX 7 6 0 0
BITMAP
9E
64
08
30
10
08
ENDCHAR
STARTCHAR U+30DF
ENCODING 12511
SWIDTH 888 0
DWIDTH 8 0
BBX 5 7 1 0
BITMAP
60
10
60
10
00
E0
18
ENDCHAR
STARTCHAR U+30E0
ENCODING 12512
SWIDTH 888 0
DWIDTH 8 0
BBX 7 7 0 0
BITMAP
30
10
10
20
24
5A
E2
ENDCHAR
STARTCHAR U+30E1
ENCODING 12513
SWIDTH 888 0
DWIDTH 8 0
BBX 7 7 0 0
BITMAP
06
04
34
08
14
22
C0
ENDCHAR
STARTCHAR U+30E2
ENCODING 12514
SWIDTH 888 0
DWIDTH 8 0
BBX 7 7 0 0
BITMAP
4C
30
10
9E
70
10
0C
ENDCHAR
STARTCHAR U+30E3
ENCODING 12515
SWIDTH 888 0
DWIDTH 8 0
BBX 6 5 1 0
BITMAP
20
BC
68
10
10
ENDCHAR
STARTCHAR U+30E4
ENCODING 12516
SWIDTH 888 0
DWIDTH 8 0
BBX 7 7 0 0
BITMAP
20
2E
F2
14
10
08
08
ENDCHAR
STARTCHAR U+30E5
ENCODING 12517
SWIDTH 888 0
DWIDTH 8 0
BBX 5 4 1 0
BITMAP
70
10
20
F8
ENDCHAR
STARTCHAR U+30E6
ENCODING 12518
SWIDTH 888 0
DWIDTH 8 0
BBX 7 6 0 0
BITMAP
5C
24
08
08
3E
C0
ENDCHAR
STARTCHAR U+30E7
ENCODING 12519
SWIDTH 888 0
DWIDTH 8 0
BBX 4 5 2 0
BITMAP
F0
10
70
10
E0
ENDCHAR
STARTCHAR U+30E8
ENCODING 12520
SWIDTH 888 0
DWIDTH 8 0
BBX 6 7 1 0
BITMAP
BC
44
1C
64
04
3C
C0
ENDCHAR
STARTCHAR U+30E9
ENCODING 12521
SWIDTH 888 0
DWIDTH 8 0
BBX 6 7 1 0
BITMAP
98
60
9C
64
08
10
60
ENDCHAR
STARTCHAR U+30EA
ENCODING 12522
SWIDTH 888 0
DWIDTH 8 0
BBX 5 7 1 0
BITMAP
18
C8
48
48
08
10
20
ENDCHAR
STARTCHAR U+30EB
ENCODING 12523
SWIDTH 888 0
DWIDTH 8 0
BBX 7 7 0 0
BITMAP
18
68
28
28
4A
4C
88
ENDCHAR
STARTCHAR U+30EC
ENCODING 12524
SWIDTH 888 0
DWIDTH 8 0
BBX 6 7 1 0
BITMAP
C0
40
40
44
48
50
60
ENDCHAR
STARTCHAR U+30ED
ENCODING 12525
SWIDTH 888 0
DWIDTH 8 0
BBX 7 6 0 0
BITMAP
DE
62
44
44
7E
40
ENDCHAR
STARTCHAR U+30EE
ENCODING 12526
SWIDTH 888 0
DWIDTH 8 0
BBX 5 5 1 0
BITMAP
18
E8
88
10
60
ENDCHAR
STARTCHAR U+30EF
ENCODING 12527
SWIDTH 888 0
DWIDTH 8 0
BBX 7 6 0 0
BITMAP
9E
62
42
04
08
30
ENDCHAR
STARTCHAR U+30F0
ENCODING 12528
SWIDTH 888 0
DWIDTH 8 0
BBX 7 7 0 0
BITMAP
18
4C
38
AE
78
08
08
ENDCHAR
STARTCHAR U+30F1
ENCODING 12529
SWIDTH 888 0
DWIDTH 8 0
BBX 7 6 0 0
BITMAP
9C
64
18
10
3E
C0
ENDCHAR
STARTCHAR U+30F2
ENCODING 12530
SWIDTH 888 0
DWIDTH 8 0
BBX 6 7 1 0
BITMAP
BC
44
1C
64
08
10
60
ENDCHAR
STARTCHAR U+30F3
ENCODING 12531
SWIDTH 888 0
DWIDTH 8 0
BBX 6 6 1 0
BITMAP
C0
20
04
08
30
C0
ENDCHAR
STARTCHAR U+30F4
ENCODING 12532
SWIDTH 888 0
DWIDTH 8 0
BBX 7 7 0 0
BITMAP
34
9E
62
42
04
08
30
ENDCHAR
STARTCHAR U+30F5
ENCODING 12533
SWIDTH 888 0
DWIDTH 8 0
BBX 5 5 1 0
BITMAP
20
F8
28
48
90
ENDCHAR
STARTCHAR U+30F6
ENCODING 12534
SWIDTH 888 0
DWIDTH 8 0
BBX 5 5 1 0
BITMAP
40
78
50
90
20
ENDCHAR
ENDFONT
